<mxfile host="app.diagrams.net" agent="Mozilla/5.0 (Macintosh; Intel Mac OS X 10_15_7) AppleWebKit/537.36 (KHTML, like Gecko) Chrome/134.0.0.0 Safari/537.36" version="26.1.0">
  <diagram name="페이지-1" id="PKHCjFHhKtMede023YYh">
    <mxGraphModel dx="5100" dy="1700" grid="1" gridSize="10" guides="1" tooltips="1" connect="1" arrows="1" fold="1" page="1" pageScale="1" pageWidth="1920" pageHeight="1200" math="0" shadow="0">
      <root>
        <mxCell id="0" />
        <mxCell id="1" parent="0" />
        <mxCell id="szpw3MNMhI2yVc2b8Nyr-8" style="edgeStyle=orthogonalEdgeStyle;rounded=0;orthogonalLoop=1;jettySize=auto;html=1;entryX=0;entryY=0.5;entryDx=0;entryDy=0;strokeWidth=4;" edge="1" parent="1" source="szpw3MNMhI2yVc2b8Nyr-1" target="szpw3MNMhI2yVc2b8Nyr-2">
          <mxGeometry relative="1" as="geometry" />
        </mxCell>
        <mxCell id="szpw3MNMhI2yVc2b8Nyr-1" value="" style="shape=image;verticalLabelPosition=bottom;labelBackgroundColor=default;verticalAlign=top;aspect=fixed;imageAspect=0;image=data:image/png,iVBORw0KGgoAAAANSUhEUgAAAIwAAACMCAMAAACZHrEMAAAABGdBTUEAALGPC/xhBQAAACBjSFJNAAB6JgAAgIQAAPoAAACA6AAAdTAAAOpgAAA6mAAAF3CculE8AAACSVBMVEUAAAAgIGAjI2ElH2QnImImImImI2AAAIAoImAnIWIlI2ElImAmImEmImEmImEpI2MmJmImI2ImI2ImIWEmImEmImEnImAoI18AAAAnI18mIWEmImEmImAlImAoI2ElImEnImEmImIjI2MmImEmImEmImInI2EmI2EmIWEnIWAmImAmImEnIWImImEnIWIzM2YmImEmImEmImIgIGAmImImImEnImAmImEmImEmJmYhIWQmImEmImEnJGEmImElI2ImImElI2ElImAmImEmImAlI2AnIWEkJGEnImEmImEmImElI2IkJG0mImElIWEkJF8mImEnI2EoIGEnJ2IlImEmImEmImIcHFUmImEkIWAmImJAQIAlImMmImEnI2ImImEAAFUmIWIoIGAnImEmImEmImEmImImIWEnImEmImEmImAoJGAmI2ErIGAmI2ImImEpH2YmImEkJGEmI2InImAmIWImImErK1UmImAmImEnImEnImAnIWEkJF8nImEkJGEiIl4mI2EmImElImImIWAmImEmImEmIWEmImEmImElImEkIGAkJFsnI2IlIGEmI2AkJGQaGmYmIGAmImEmImAmImIlIWAlImAmJl4rHGMlImImImAlImEmImAlIGAnIWEnHWImImEmImIiImYmI2EmImEmImEoIl4nI2EnImEkIWImIWEmImImImElImEmImEmI2IkJGMmImEmIWEpIWMtHlonH2QmIWIlI2EmIWAmIWEmImIoKF4mImAlImEkJGIpImAmImH///8XW/DnAAAAwXRSTlMAEB0pNERQAi1WfKTL8cosImaq7PK7dzMBO5nn5pc62uGIJL3+vELHzlXR0E61JwX39oAIPNtv+vsUF+TjT/hg/GePjn9tVBWytnl1B9h7I8KERw1M9MQJz03MBEvFQfMDtyDNftzuoKVxSkDlGKLrGekqXrlr+QbB1Wmsxiv1Mh6T/VN6o9+hyO/TOA59N1gcCijgNadFUhsSaN6WyTCRGuKVD6m66ibAmEbd2Yadpkkxs7AfESFzsWVkjRO0qzkl9K1F8gAAAAFiS0dEwv1vvtQAAAAHdElNRQfoBxkPOSZ+J7gwAAAFwElEQVR42u2b+1tURRjHj8CCoCCLsSHJZXW5rLCyu+qCIrSGASpGIZcWQRGEajUgKrAULaIQVwi1NFQsILvaje5ll/nPEvccLuqZ8847M1s+ne8PwDnPznk+y7zz3maOopgyZcqUKVOm/idaERUdY4mNtcRER6349yjiVsYnrFqdSJYoMWlVQvyauEiTJFtT1hIdPZJqezQtUiBp69IfIwZan5EZCZ4oWxYBKdu+QTKKZaODgOXIyZWJkkcYle+UNFuxmwhCBYUy1o+LIJWzWTBKkc1N0PJ4t4hk2bqNcCkrU5xj8RUTTpV4Bfnl7S4iQKk7hExRKRGinQKmqsxNBKncycvyeAkRJv8uPhYbESo7D8sTRLAq8Cy7iXAlYFl2EQl6ErmO/DJg/JUo/1JOpMiN8DdVnL7u/icueL/tzPGomsiCIXtYE669RB4M2cdoMCUyYYqZzKZmP5EJQ7JYsi0vkQtDnoKz1Lplw3iSwTB7ePO61RWxdBhSDa5JuHza08/UHXjgY5d/rh7oYvKxIA2NdkuT7nOXf/ZZmLMJYFmaD1Kfe8+nW0AwregpsrDA5IEKary9FMQxwJBDAJiNHNbbwgKTA/AxDjTKYV/bYmluDONIluh8j7QvPqWpwxiGHDVc151IlC7r0rX6HAHAbDNa3euQLM9XhceHI+ALBAJDjIJ3OgolO6jlzTvL7vw8BkxAMgxgjiNQHOmq/3+xm5CeXiXqJeDA43SWPkzz5Zhqbi/fbQ2/0pQEHkrvab3KjNK/eyA8dPMJ9c5r8MGvU2FOUjOSBxjhqUGePlsKdT+ghw3mtE11c2c6UIa/lhY/1hAmGNcb4bsH3hxCeoRBCoyTBabLqt4MZqO99lsUmAQGmBTVze3o5oiswxSYt8Ew79QtW89YjVBgkoAwQ5qbq03FVQeazlJgRmEw50Lhq4O+BsIHM6rPcp5AYMrHisIX4/fubLx7xM8IQ/T3NScgMK194T8v2P33/zd6fQVsMPobZBeNYRpsqp8KXtKZmkF7DwPMuC7Me4Yw1RPqen6fYic18S4/FOayLkyuIQxUvfuAMPqFZZkwGFCQndeVhwMmN/IwLRwGLBzmMsfSFm7A+kv7A0MYV1T492S6g7K0AynF0KWdzBMOEq+qlVfdNR2Y8etdQsIBKFA2XlQrWG8/fzigBEplChIoPTa1KXQjiTtQnuVPrjbFqPm7NZEzhRgRkHaWfHghfP3RST6YYSEJeafWdwpM86SdtIR8EJ6QD82omedsxhAepo/WnWEp4tZrjefMc1gWahHHWN5q1UoRJRem6mNw4Q+ILwt1XO1NFMxVKkw0a+GvVbiK8xMEzKeCm0UL8aFKc1KfgceWGoTbz9m/3gnt+33x5fzlzTbwlF2X0GB0ewcWw1X5ZmXyGnBgyCgTuYUxRC0+KCvz5vfYbnhAowxbr8pR3HbXV+quY9zdatMKCgdjhjlaO7Jd37nstOLXABhAu17JQXrToZnzS9r1+cYwqYD0NRcdaKaXpPqAjQzIFo+Sh6bx9zJUB42gzL4eDfMNS6nyLazO6MDCfMcAkw88nVGIZDnVxgAThJZgcxxbyVtgMN+D68EfTnPs9jfbAz8awnh+glenY7KPH+xlKJUHZB9ZqWEp3DOLZcIUhxQm2WTC/Mx6AOwXeTAu5hP3k5dkwUwzH427YzZuOTCekIJQoEQGjP8Krhf2KxEvx2/YzlyCeJhhfJ+wQjTL7zxdS5tDKAvXsW3BB9qtvK3kQo8olvJKhVuZ02JYskOKAN3+QwTL3G0xTf80Xz8virAXZ+an6hYfy/6QIlBFvsN4FI+3RhGriT/R1tKuiFc96gBqc1CRo63MpxtbAxJfNM3NYXmpM/WQIlf/odddwws9w7AnWjrzlxIxJVu7dV8f6ZmL4CvSml8erBzunlq2dzc6NTJc2RdpkCWa/TtkCTqdQUtow6xiypQpU6YeUv0DyLIlfkhM58YAAAAldEVYdGRhdGU6Y3JlYXRlADIwMjQtMDctMjVUMTU6NTc6MzgrMDA6MDAarZ+yAAAAJXRFWHRkYXRlOm1vZGlmeQAyMDI0LTA3LTI1VDE1OjU3OjM4KzAwOjAwa/AnDgAAAABJRU5ErkJggg==;" vertex="1" parent="1">
          <mxGeometry x="-1330" y="525" width="100" height="100" as="geometry" />
        </mxCell>
        <mxCell id="szpw3MNMhI2yVc2b8Nyr-2" value="" style="shape=image;verticalLabelPosition=bottom;labelBackgroundColor=default;verticalAlign=top;aspect=fixed;imageAspect=0;image=data:image/png,iVBORw0KGgoAAAANSUhEUgAAASwAAAEsCAYAAAB5fY51AAAgAElEQVR4Xu19CXhV1bX/b507ZA7zJKgBEhFRHCCgdcKhDlVI0BZtX1+rJpbavtfa99p/VeAZFRw6afteq1YGbbVOFQJoHXDAGQiDogiYMAoqgwyZc4ez/t8+IRhCknvOvfvOa38fXwJ37bXX/q19f+yzz9prEaQJAoKAIJAkCFCS2ClmCgKCgCAAISxZBIKAIJA0CAhhJY2rxFBBQBAQwpI1IAgIAkmDgBBW0rhKDBUEBAEhLFkDgoAgkDQICGEljavEUEFAEBDCkjUQEQJccVrPRo8ry2UYWeRHVsATzDSClKWUmi5ucvtdzexBU9A0m7L9wSaq+OBARANK57RGQAgrrd1/5OS5YkzfBsM1mMgcDNBgGHQMGH0Z3IsIvQHqzax+qr9T30igY+a9AO0nwj6A9zFjHxHtA/AVTP4c4J3Mxs4cM7iTKlbtjWQs6Zs6CAhhpY4vbc2Efzs6p8mfOZphjgbTKQw6iZiPswiKkGlLSayFGM0WgRFtJ/AnANYSG2uzMpo+ol+tbYi1OTJe/BAQwoof9lEdmRnUcs+4ItM0FSmNBtFogEcDGApQividGcAWgNaCeS2B1xrsWpsxfXkNEdRn0lIMgRRZuCnmlTCmw8/A1bhh7Gi46UwwncngMwl0Qhiqkr4Lgz8lxvsALWPiZTlFVR/RFASTfmIyAbmak6xrQO2gGu4aN9owcBEDFzHhXALyknU+0bSbgToC3iLgNTOI13NmrFgrO7BoIh493bLDih622jU33zVmeBDGhUy4CIQLCdRP+yBpoJAZuwF+gxivGW7/kqxbP9iaBtNOiSkKYSW4G/n20f2bPN4pTHQtgG+kzvlTogDPDKZ3QeZT2X5+Wt5IJopfOrdDCCsB/cP3junRaNK1zMY1xHw+iIwENDP1TGIEQHiNwU/lGM0L6daP9qfeJJN7RkJYCeI/K9zA553IoO+CcRmIvAliWnqawewD4SVi/CMro+V5CZ9IjGUghBVHP3DFKG+jN+cSNvE9Ip4EUE4czZGhu0SAGxi0kIB/ZPuzX6aKpQEBKz4ICGHFGHf1dq/57jETTBjfY9DVBPSKsQkyXAQIMHgPMZ4lg/+RdevK9+RtYwRghtFVCCsM0MLt0nj32LOZjZsBTAbgCleP9EsIBFRc1wJi+n329OXLEsKiNDBCCCvKTuaHx3ga9rq+S8w3g+j0KA8n6uOBAGMZEd+f1ddcQFNX+eNhQrqMKYQVJU9zRUFmo7vfDQBuAdGxURpG1CYUArwdhHuz+5izhbii4xghLM24KqJqcvf/CYN/BaKBmtWLuqRA4BBx+fbMo4qtzUlhcpIYKYSlyVFWWEJL5lQhKk2ApoIa5i+J6DdZ/t0PCnHpcagQVoQ4csUEd6On/gdg404QBkeoTrqnIgKMncw8IydY9RhVwEzFKcZqTkJYESDdcPe4Ujb5XiIaEYEa6ZomCDCwFmbwV7kzVr2SJlPWPk0hrDAgbbjnjDEwXX8E6OwwukuXtEeA34UR/HnOratXpT0UDgEQwnIAWNM9pxUEg557iTBFLiE7AE5EO0GAVfbBp12G/1bJFmF/gQhh2cCKK2A0ecb91GTMJEK+jS4iIgjYQoDBBw3m6VmBlX+R863QkAlhhcCo4c6xp8NFswE6IzScIiEIhIsAr0aQy3P+Z+WacDWkQz8hrC68zBXj8xs95t1g3CTpXdLhq5AAc2Q2AfpLdoCmUcXy2gSwKOFMEMLqxCVNdxefbzL+AdAxCecxMSgNEODPDcL3sm6rejMNJutoikJY7eBSwZ+Nvoz7APxEDtUdrSMR1o6AlQn1z9kZzbdILq6vwRXCOoRF666KHgVQoH3tiUJBIHwEthKb12RPX7kifBWp0zPtCcu6pOzp9zvZVaXOok7BmQQJ/Lss/56KdL/ik9aExRVn9W5wB58lwoUpuMhlSimGADNezwm4vkMV7+9LsanZnk7aElb9rDNGE7sXgXC8bbREUBCINwKMbUyBSbnTVq+NtynxGD8tCavhrnFlMPC/ALLiAbqMKQhEiEATga/Lnlb1TIR6kq57WhGWyv7ZuNf4C0DlSecpMVgQ6IAAg3+fU1T1a5oCla45LVraEFbreVXgaSK6OC08K5NMCwSY+dUcT+1V9OuNdekw4bQgrOa7xo4IGsZLErKQDks6/ebI4A1uk0szZ6zcmOqzT3nCappVfFGQab5cWk71pZze82NGrYv4qqxpVa+lMhIpTVgNd4+dCjb+LCW1UnkJy9zaIRAEmT/NuW3lw6mKSsoSVv3M4t8S0S9T1XEyL0GgKwSY+Xe506t+lYoIpRxh8TNwNVQXP06ga1PRYTInQcAOAgx+Kqeo6vup9gYxpQiLK8ZkN7qNp0F0pR2niowgkNIIMD+fHWi8mirW+VJlnilDWHzvmB6NAeMVEI1LFefIPASBSBFg4I0cV3Ay3bLqYKS6EqF/ShBW433jh5h+819EdEoigCo2CAKJhAAzf5RjBC6i29bsSSS7wrEl6QmrcWbxsSboNSIUhQOA9BEE0gEBZt6Y4285j+5YuzuZ55vUhKXIignvAHRcMjtBbE8MBIxjRoE8mYlhjE0rONACc+fHtqQVabnc5iVZt6zabqtDAgolLWE133NGYdB0vSZklYCrKklNyrrpOVCvIUllPdfuQtP/TbJvM2Oby8Almbet+NR+p8SRTErCUmQVCLrfJUL/xIFSLEl2BNKCsAAwsMtNOC8ZSSvpCKv5nuJhQRNvS4GIZKeHxLM/XQjLQp6x08XB8zNnrNqUeJ7o2qKkIiyVcaHRHVgBouHJBLLYmhwIpBVhtbqkJptwJt224qvk8BCQNITFfyrMaKzt9ZbEWSXL0ko+O9OQsNROa1l2YPcFyZIrPikIixnUeHdxJUAOTheT7wsjFscXgbQkLOvxkBdkT6u6mkgdbyV2SwrCqp9V/ACBfp7YUIp1yY5A2hKWdaTFf8ydVnVzovsw4QmrcebYm5mM+xMdSLEv+RFIZ8JS3iM2f5E9feUDiezJhCas5ruKLw4SXgaRkcggim2pgUC6ExaYTWbz8twZq15JVI8mLGG13DnmFL/hekcyhSbq0kk9u9KesKzjLNS6mcZmzlhenYgeTkjC4rvH9WlkfAAgucKOE9HDYpNtBISwWqFi8Kc5fvNsqli11zZ4MRJMOMLiignuRk/DWwCdFSMMZBhBwEJACKv9QuB3s/05E6hiaSCRlkfCEZa8EUyk5ZFetghhHenvRHxzmFCEpSrcmKBX0+trIrNNFASEsI72BMO8JHfayiWJ4qOEIaz6WeMHEJsfgGhgooAjdqQXAkJYnfmbv8j2+0+iig8OJMJqSBzCmlm8RKoyJ8KSSF8bhLC68D3j2ZzpK6YkwspICMKS4NBEWApigxBWN2uAcVPO9BUPxXuVxJ2wWu4sHhUwsBpE3niDIeOnNwJCWN35nxvc4DMzpq20l940SksproR16FKzym11dpTmJ2oFAdsICGGFgIrxTnZgxflUAdM2qJoF40pY9TOLbyGiezTPSdQJAmEhIIQVGjZmvjV3etW9oSWjIxE3wqqfdcZoYleVPApGx7Gi1TkCQlg2MGP2udg8KV6ZSuNCWNaj4Kxxa0A41QZEIiIIxAQBISybMMfx0TAuhCWPgjYXhojFFAEhLPtwx+vRMOaE1Xz3uBOCzGsByrAPj0gKAvoQoNx+oPz+MHoMBOUPAPIHgNwZcBUUp36ZL20wcouLaHSsK+/EnLDqZxa/QUQTtOEmigSBjgi4vTB6DrbIx+g1GOg5GEbPIaBe6ucgwHV0BI1v8R3wnFMmhOVsNb2cM23FZc66RCYdU8JqnDX2WobxZGQmS+/0RYBAub1BuX1Bef0P/ewHa8eU1+7fsns6gii44yO0/K1csjU4Qu2QMGFyzm0rKsPpGk6fmBEW/3Z0TqMvc4PkuArHTanfhzLzviagPEVCfYG8/jAsclKE1A+U0wcwXFrBYDOA5r9+F7xvuxBWOMgyf5YdaDyJKtbVh9PdaZ+YEZakjXHqmtSXNwafDO+kO2Dk9QPc8TnS9L87D/43W2+cyKF7eGsulmloYkJYDbPGnAG4VgDQ+99jePhKrwRCIOM7v4Or6Ny4WMS1u9D00LeBgE8IKzIPBGEExufcunpVZGpC944RYY17CcCloc0RibRDILsXsqY+DcrqEfOpNz/5M5hblh8eV3ZYEbiAsTBn+orSCDTY6hp1wmq6a+wE0zDesGWNCKUlAq6RFyNj8qyYzj244XW0zL/1iDGFsCJzgUE4L+u2FW9HpqX73lEnrPpZxUsJdH40JyG6kx8B79W/gXtEbJYJ+5vR9JfJQMM+ISyNS4fBb+ZOq4pqyFJUCav+ruLLyKAXNWIiqlIVgcz81kfDnN5Rn6Hv1QcQWHF0dI3ssCKH3jDNC7JmrFwauabONUSXsGYWryWiU6JlvOhNLQSMYWch89roFh4292xC8+zvA3x0hhQhrMjXEzO/lTu9Kmpb5agRVsPd40rBWBA5BKIhnRDwTqqA++TLozbl5nnXw/zik071C2Fpgj2KwaTRI6xZ45YBGK8JAlGTBggYx54G75UzYPSKTv3cwJr58L14X5dICmHpWWTRPMuKCmHJm0E9jk8XLZTdC56Lfx7VnRU3HkTTg1cBLV0HZAth6VtxxHRW9vTlatOitUWFsBpmSdyVVi+lrDKC+/QSeC74D6irOdFsLYtuR/BjFQ7YdRPC0uiBKMVlaSeshjvHng4XrQJIu26NcIqqOCNAfQvgvfJ/4DpmVNQtabvcHGogIaxQCDn5nNllGiMyZyyvdtIrlKx2UqmfWfwUEV0TamD5PE0R8GTCc96P4Cm+VvtF5s4QbX+5ORTiQlihEHL4OfNjOdOrrnPYq1txrYTVfM8ZhcGgez0Ibp1Giq7UQMB1wvnwXvLfrUnzYtT878yF/62HbY0mhGULJvtCjAAoeFzOtFVf2O/UvaRWwmqcVXwvg36tyzjRkxoIqNxV3iumwTXszJhOyDzwOZofngIE/bbGFcKyBZNToTtypq2ocNqpK3lthMXPwNVQXbyLQH10GSd6khwBMuA589/gOacc8GTGfDLNj98Ec/tq2+MKYdmGyr4gY1t2ILuQKpYG7HfqWlIbYUk2UR3uSB0dxqCTrEN1o9/QuEwquP5VtCyY5mhsb8mdVqLAZGrcsA8+h/OM+fw0BpJqIyy55BzzZZCQA1JWPjwX/gzuUydqt4+baqH0h2rsa0LzQ1eD678KJSqfxwYBbbnftRBWy93jTwqw+bGEMsTG+4k6inv0FRZZkcOc6qHmY361Db7n7wLMADKumwsio9suvld+j8DKZ0Kplc9jhgCz4TILsm5ZtT3SIbUQlqQ/jtQNyd2feh9nXalxDRmtdyKBFvjfmQP/sscBM2jpVkGmnrP+vctxrMvNj3xPrx2iLWIECHxf9rSqWyJVpIewZo7bRYT+kRoj/ZMMAbcXnrPL4Dnr+4ChN5IluHkZfC/MAtftPhIUw43MqU93et+QmdE87zrwl6rWibREQoCBXbnTVgyM1KaICUvuDUbqguTsbxw/Bt6Jt8PQHFPFdXvgX/J7BDZ0naTWGDSy00fDwKpn4Xv5d8kJaBpYrSNXVsSE1TCz+FEQ/TAN8JYpAqDcPvBc8ku4T7xQLx5swl/1DAJvPQR1aB6qeS74KTxn/eCwmDpgb3rwasAfum8o3fJ51BB4OGfaih9Hoj0iwuKKCe5Gd+N+EHIjMUL6JgECKqZq7BS4z58K8mZrNdj8cgNaFt8F3lNjX696NCx/HEbf1rCJlsrpCH6yxH5/kYw5AuqxMMefPSSSmKyICEuS9MXc53EZkAaMQMbEGTD6F2kdn1vqEVj6IPyrngPAjnVT/0Jklv0d5vY1aHniJ477S4c4IBBhTFZkhDVzXCUIJXGYtgwZAwQoIxfuC34CzxlXax8tsO5l+F99ACrwMZLmObfcShtj7t8RiRrpGyMEmPnp3OlV14Y7XNiExQ+P8TTuMepB5A13cKPfMKjkbanQ1Nssc99nqTAVaw7uk74Jz8W/sM6sdDZFLCqmyvzsA51qRVfSIMAt2f7GfKpY11q91mELm7B0VMTJuPo+uEZEtSqQQzjCFw+sfg6+l34TvoIE6Uk9BsF7xXS4CsbqtSjog/+9v8H/3qO2LyPrNUC0JQoCbPLluTOqus+m2IWxYRNWw6xxDwGYGgkIQliRoKe5r8sDzzd+AM9Z1wHusDfNnRoV3L7G2lXxgZ2ajRZ1SYpA2G8LwyesmeO2gnB8JIAJYUWCnr6+0Sr+oM6n1DmVOq+SJggcRoCxLWf6ioJwEAmLsFruHnNigF3rwxmwfR8hrEgRjKx/a/GHm+E++bLIFHXsrWKq1ixA4I0/g1sa9OoWbSmBgJuCIzNuW+X4SkJYhFU/s/gWIronUuSEsCJFMNz+BPcZk+GZ8BPtxR/M3dWtMVW7NoZrnPRLAwSIzV9kT1/puGpuWITVoKnmoBBW7FemKv6QMekOGANP1Dq4ik5XUeoqWr2zqspaBxNlqYBAWClnHBMW/6kwo7G29wEQIk4hKYQVw3VnFX+YCs+4a4EQ6VmcWhXY+Ab8L/8eXL/HaVeRT1cEGM3Z+ft60s9qWpxA4JiwdF52FsJy4qrwZVXoiFX8IU9vQg2zdpeVUcHcsjx846Rn2iIQzmVox4TVMGucSih/uw6UhbB0oNi1jqgVfzAD8C97Av53ZgOBsOL/ojtx0Z4UCDDzrbnTq+51YqxjwtKZClkIy4mrHMgaLnjGq+IPZdqLPwR3rG2NqdoXcfJIBxMS0ZREIIzq0I4IixnUOGtco47zK+UAISz9y9Aq/jCpAkafiELkjjKMmw7C//r/IvDhYv1Gi8a0RIDBX+XcVtWPyP7Nd0eEVT+r+DQCrdGFrhCWLiRhhSd4Lvo53KdeqbJW6VMMRuDD5+F/7Y/g5jqNekWVIKBydPDpudOqbF8sdbSyG2aO+zEID+oCWghLD5Lu0VfCc+F/Rq34g7nzIz2GihZBoCMCjJtypq9Q1/xsNWeEpeH+YHurhLBs+ahLoagVf/A3txZ/WP7E4eIPkVkqvQWBLhFwdK/QKWEtAzBeF/hCWGEiqYo/nFNuVVWOWfGHME2VboJACASW50xbcaZdlGwTVuuBe7HKf6UtP64Qll03fS1nDB0P7xXTolD8YTf8r/wBKghUmiAQOwS4Ifu2qjy7B++2CUvXhWd5JAxvKbQWf/gV3CdeEJ6CrnpZxR+ehv/NhwB/s17dok0QsIGAk4vQtgmrcdbYaxnGkzbGty2SSjss/+rn4I9GAj9V/KF4CtznRan4w6LbwXu32vZZKgt6iq8BMvOTa4ot9fCv0Pq1jPn8CeZ3s6etfMrOwA4Iq/heBv3ajlK7MqlEWNHIOBq14g/NdfAv/QsCqxeEVfzBrn+TTS7rpudAvYYkldlcuwtN/zcpqWzuaKyTqtC2CashCgUnhLA6X2eUkQP3BFX84Sr9F5U/fqm1+EPj/qRe5NEwXggrGqja0Mn8WM70qutsSNqPMGyYOe4DEE61o9SujBDW0Ui5R10Cz0U3S/EHu4tIo5wQlkYwnamy/abQ9g6rflbxAQL1cGZH99JCWF/jYxV/mHg7XMedrhNiwCr+8KhVAAJBv17dKaZNCCs+DmXwwdxpVT3tjG6LsLjitJ6NHq/2ZwghLABW8YcfWn/gikLxh8V3gA9+YWctpL2MEFb8lkC239eLKj44EMoCW4Sl+w5hm1HpTlhRK/5Q/xX8r96PgJRuD7X+j/hcCMsRXFqF7d4ptEVY0SpJn66EZRV/+OYv4B51qVanq9TE/tXzEVj6l6Qr/qBeNHivvg+Bd+chuG2VXlxsahPCsglUNMRslrC3RViNM8fezGTcr9vO9CMsst78uSfcJMUfOi4mbw6yf/m69a/mzo+tc7dg9du6l1y3+oSwYgr3EYPZLUphj7Bm6Y/BUtamE2FRv0JkTJwRheIPjQi8+TD8K5O8+EM7wmpbyebuGgTeexSB9a/FpLCFEFYcCQt8X/a0qltCWWCLsBpmFj8Koh+GUub087QgLFX84fwfw4qi1l38YcPr8L/yO3D9V06hTzz5TgjrMHHt34HA+48hsPZfgBmImu1CWFGD1o5iW1kb7BHWrHEvAdB84JL6Oyz3iAvgueS/olP8YfEdMON01mNn9TmW6Yaw2nRx3W4EVC75NQuAgKNiK7bMEcKyBVN0hGymS7ZLWFrTyrTNOFV3WFEt/vD+4/C/Oyf1ij/YIKzDxNW4H4GqpxBY+U9wS722L5AQljYow1FkK3jUFmHVzyzeQEQjwrGiuz4pR1iv/B6eM78Pz9k3SPEHp4vFAWEdJq6Weou0FHnpuGokhOXUafrkmXlj7vSqkNV97RFWFKLcU+7QfeMbMPoO01/8ofEA/K//CYG1L+hbHYmoKQzCOjwNlSH1g4UIvP83cP3esGcnhBU2dBF3ZGBX7rQVA0MpskVYDbPGcShF4XyeSjuscObffR9G4IPFFlmlRfGHSAirDUgzYB3M+9+bBz7wuWOXCGE5hkxrh5xpK0LyUUgBrijIbPT0b9Jq2SFlQlhdo6rSv6h4pLRpngxkTNEX6qei/NWOy9z1qW0IhbBsQxUVwWz/7iyq2NptFkkbhBWde4Sp9kgYFQ+K0ogRUFHzgRVPIlj9TsjcX0JYEcMdkQI79wlDElZ9RfFA8lBUbs/KDisi/0pnBwiY+7YjuOIp+Nc+32VIhBCWA0CjIKqFsJruOa3ANL1bomBfSkW6RwMf0akfAW6qRWDNAgRWPn1UwK0Qln68nWhkPw/Kraj6srs+IXdYQlhOIBfZpEEg4LMCUNXVH27YZ5kthBVf7xmGb2jWrR90W2AgJGFFo1pOGyzySBjfBSKjwwrA9a+Zj8B7jyHzB49ITvc4LgothBWtXFhy6B7HlSFDH4EA+xoRWP4k3CdfKoQVx7Vhp9yX7LDi6CAZOr4IqEysgRVPIfDhQrCvSR4J4+sOaCEsOcOKsxdleO0ImHs2taatWffKEbrlDEs71I4UankkFMJyhLkIJzAC5hfr4X9nLoLVb3VqpRBWfJ2n5S2hxGHF14kyeuQImJ+vg/+d2QjWvNetMiGsyLGORIOWOKzN5UMHDBjar9vYiHCNlLeE4SIn/ewgENzxIQLvzEFw83I74nKGZQul6AlpuZrz6nf7Dzjr5AIhrOj5qVPN/rcehvnZhzEeNY7DabxLGNy8DIFlf0dw60pHE5IdliO4tAs/s2R31vVLI7xLOK+0oOeU4v7aaxKq2coOq3ufB9Y+D/9rfwI3HdS+OBJNIXmzkfXLNyIyS+V+V6mUzS83hqVHCCss2LR1eqZqd6/rK7d2W5swZFjDvG8VDJw4ru8XWR5Dm2FtilKJsAIfvwjK7QdXwVitOCmy8r/xf1aqGSAqWX602hu2sowcZP93a9UcR02llPn4pdbMDF9tc9S1o7AQVkTwRdS5yW9i8Yq9g67/19bIrubMKy0ouOzk3lvys9wRGdRZ55QirNXPwffSb+A+6ZvwXHwzKLevVryCn6+D7/k7wXu7vbmgdcyYKnNKWG1J+5Y9DpXrXUcTwtKBYng6apsCeOnjfUOvr9wa2dWceRMLTrzo5N7r++QKYXXnisAhwlIy5M2Ce8JP4Bnzbb2Vcswg/FVPwf/WXwF/t2mDwls18exlk7BUMsPAymcRqHoS6iKzziaEpRNNZ7q+qg/gtfU6CKu06LSzC3PWDO7ldWaBDelU3GG1n3bUahHW7oJvyR8Q3LjUBspJIhKCsFTqY5XXyr/qOcAflXyS8pYwjktl534f3t14YOT1i7du6M6M0GdYEwtOPGNYj/WF/TO0TyfVCasVMIJnzNWt1Z4zcrViqN6G+V6Ype2RSKtxTpV1QVimqkm47O+tNQmDPqdaHcnLDssRXFqFa3a3YPXmgxoIq7Sg4JQheVtGDsrSaqBSlh6EdYi2snvBc8l/W2dcWlugBf5358L//t8BM6hVdUyVdSCsWFd9VnMVwoqpx48YbP0XTfhoR52GM6zSgoKiAblbTj8uW/ts0omw2sAzjh8D7xXTYfQ8Riue6g2Z7193w/zsA616Y6bsEGEFP/sQgfcfDRmVHg27hLCigao9nWu2N6L6s3oNbwm/VTBw0IDsL84t1Ps4k247rI5u85x7IzznltvzpgMp9Yrf/+oDWur0ORhWi6jruNMR3L5Gi65wlAhhhYOanj5v19Tji/2NGuKwSgt65mdn7r9sVL4ey9ppSccdVnsQqedgeK+cAfVF1dnUmzRVdSewekFqx27pBE0eCTWj6UzdS+tqUft5s4ZI9wkFme4+nqarzujlzAIb0ulOWG0QuUddAs9FKnarjw3U7IuYX25Ay+K7wHtq7HdKY0nZYcXP+fNX78e/P1cd8iVgSAE1hTmlRXzVGT3gdemNdhfC+nqBUEZOa+zWGVfpjd1iE/6VzyDw5kNWkjppXSMghBWf1eELmpi/+iDKKjUR1uySwi8vPzl/QM9svcGjQlhHLxAaMAIZE2fA6F+kdfVw/R74lzyAwPpXtepNJWVCWPHxpgoafeWT2l3lC2v0lKqfU1K04dyinBG6g0eFsLpYIGTAM/Y7cJ83FWrnpbOpDAa+F2ZCpQeWdiQCQljxWRFb9jZj+eamjWULq08MZYG9R8KSomWjh2SNP+mYzFD6HH0uhNU9XOpMy/PN/4J75MWOcA0prCrFvP8o/O/9DQj6Q4qni4AQVnw8ve5zFYPVvLxsYfWZoSywRVizSwsrC3p7S84arje0IZUIy7/6Ofhf+k0ovMP6PGqxW/t3wPf8XckbuxUWml138hRfA2Tqfxuu2cwj1bXUw7/iyagOEW3l72+qx9Z9voXllTWlocayR1glRQ/1yDKmfuuUHqH0Ofo8lQir/eVnRyDYFXZ54Tn7OnjO+gHg8tjtZUsu8MkS+F+9/zVsrIwAAB7qSURBVKhKyLY6i5AgECEC//roIA42mQ+XL6z+cShVtghrbknhvUz062+f0RNul60uoca1PhfCsgXTEUJRi91qaUDgzQdbLxez6dww6SEIhIFAIMj45+oDIOb7blhYc0soFbbYZ05p4c0A3f/NkXnQmWZGCCuUe7r+3H3yZa2xWzl64+PM3dWtsVu7wsvaGf6MpGc6IqDeEC5ZX6cCnH9RVlnzQCgMbBHW7NLhpQRjwdjjs6Eza4MQVij3dP+5eoPoueA/4D69VH/s1ur5CCz9C7ilITIjpbcg0A0CKkvDym2NYJiTyys3VYYCyxZhzSstOs0E1hT282Jsgb7X7EJYodxj7/OoxW417IP/tT9aKYilCQLRQGDl1gbU7PHBAE6/vrI65M19m4RV0NOEZ3/PbBd03ikUwtK4BFTsVvGU1tgtr97MGupCsnqbyAd2ajRYVAkCgLpDeKAxCAP+kBefFV62CEsJzi4tPECgHpNP74EMt54rOkJY+pesFbt1ya/gPvECvcqDfivnlv/deVFPpKfXcNGWqAi0BEwsWHMQDD5YXlnT046dtglrTmmR2q6dOuGEXAzsoee1uhCWHReFJ2PFbk28HUb+gPAUdNHLPPC5FSlvblulVa8oSz8EVFrkt2saVDEoW0GjTndYlQQqOXlwJk4+Rk/2USGsKC9St4rdKoPnzH/TH7u14XX4X/kD1B1FaYJAOAh8+Fkj1n/ZoorXPVZeWX2dHR32d1glhbNAdFv/PBcuPFFPNLAQlh0XRS5DvY9rzbs1ZHTkytppUNkfAm89DH/V0xK7pRXZ9FD2+oZa7K4LKsKaWV5ZPcPOrG0T1uxJw68lw3jSIODqM3rCpX6JsAlhRQigw+7uU74Fz0U/A2Vrjt3as8WqmWh+8YlDi0Q8XREImoznVh+Ayer/OvO75Ys2PWUHC9uso+oTmi7PeqX0whNz0T8v8nMsISw7LtIrQ5l5h2K3Spy8c7FhBCOwZqFVpVplPJUmCHSHwO46P17fUG+JGEF/yGo5bbpsExYDNLekqA6EnJEDM3DqsZG/OhfCit+iNgadBO+V/wOj31CtRnDjfvhf/18E1r6gVa8oSy0EDp9fMTeWLazJJXX0bqPZJiyla05J0TIQxudnGtBxEVoIy4aHoimiYrfGXQv3uT+yqlXrbMEda1tjt/Zt16lWdKUIAurCc22z6egNoZq6I8KaXVL0EBGmqo4TR+cjJ8MVEXxCWBHBp60z5faD99JfwjVigjadliIzAP/yf8D/9iNAILpFUPUaLtqiiUBDSxCL19ZaQzDDVpYGx4+E1g5rUtGPYeBB9buOe4VCWNFcFs51G0PHw3vFNP2xW7W7rArV5pblzo2SHimHQNv9wdb/1HBT2aLqh+xO0tEOq+1OoVI+MN+NCSPy7I7TqZwQVkTwRaezit06p7w1dsvQm8M/+Olb8L30G4ndio7nkkbr0o11+LI2YNlr9w5hWDss6+C9tEhFCvbRGd6QNEinkaFG3wJ4vnUbXENO1TvrQIv1iKiu+WhpnkzA36xFlSiJPgK+AKPyg0PhDMC+ssrqvnYP3JV1jnZY1mNhSeFLILpU/X5uYQ50F6aIPmQyghME3KOvhOfC/wRl27rqZVu1+dW21vTMOz+y3aczwYxr7kdg2eMIylWhiHCMVefD13GsEr9sKy1ye9ucE1ZpYQVAtyslg3t5EI0S9rECT8axh4AVu3Xhz+A+bWI4/8d1Mwgj8OHzVhgENx20Z0w7KdeoS5FRcifU/cbmh6dIQQ3HCMa+gypJv3P/ocInzLeWLay514kVjgnrkdLCCQboDWt7RsBVp/eER2PaZCfGi2xsEYha7FZTrRVwGvhgkfX/rq2W3QtWlZtDZdD878yB/62/2uoqQvFBwB9kzF9zQL0ZtJoJvuDGypqlTqxxTFh/urwwI8eLAyCyan6NH5qFoX31lv9yMgGRjTECKnZr/PfgObcc8GiO3fp8nXXFh/duDTkp9SjoGv6Nw3JsBtD84Lel3mJI5OInYNUf3HKo+jhzc4MPPX/2Yk2LE4scE5ZSPqe0cClA56vfdV6GdmK4yMYXASt267L/B9cJ5+k1xAzCX/VU626pi8N0dSdSpc7p2NQ5VssTP9Frj2jThkDbZedWhfxmWWWN48C/8AirpPAWEN3TNpPS03og06MnqZ82dERRTBCIVuwW1+220tcENlqnD1+3Do+CHSfZsvB/EFz3ckzmLoPYR6DZb6Lyg3bnlGGcX6nRwiKs9hehlZLRg7Oguyq0fShEMu4IqNitc39kPSrCiOz2w1G7ps3LrKBTRWCqdXwU7CjPjQfR9OcSwH/o0SPu4IgBCoFPPm/G2p1f+8TJhef2CIZFWErB7NLCrQQ6Xv2e7TWsqzqkTuGlpS0CRt+hVt4t45hRejFQsVvvzgU37If3W7eF1O1f9U/4X/5tSDkRiA0CzIzFaw+i0dd62s7gbeWVNQXhjB42w7S/V6gG1pVyJpxJSJ9EQoDgPvVQ7FaW3krhdmepviDN864Df7nBbheRiyICXx70Y+mnralkLMJyeH9Qzw5r0vDLyDBebFN2fG8PzhqeG8Vpi+pkQoCyelgBp4q8wjx5iGi65p5NaJ79fUeZUL0ld4Ly+kU0bqw7c8M++BZMi/WwjsY7IvZKEZZpXl6+aFNYtePC3mE9851R3lpfSy0RZSjr1dNg6ak9kCGH746cmerCxuBTWh8T+1inBzFtviV/QEClb7bZrLiuXkNsSieGGNfuQtP/TUoMYzqxoqHFxPNrVWWcQ7sr8MHgZzX9pq7CoehRZ6aHTVhqmNmlhVZhirYhTx2SiZGD9MbmOJuOSCckAoYLnvH/Bs85ZYC6+xejxr5GND14NdCwz9aIQli2YHIk9PHnTfh459d3PcO5jtN+wAgJq7WEfZvCnAzCxNF675w5QkeEExoByutvpa9xDTszZnYGN7yGlvmhD+qVQUJY+t2yeO0BNLR8fXvBbkn6riyJiLDemAD35h5F+0A4nGfmrGHZOL6P9ZQoTRDoFAHXCefDe8l/gzTXTOwK7ubHb4K5fXVIbwhhhYTIkcC2r1rw/ubGw30YqB9+oLrXBUvRmlsmjBYRYanxZpcWPUrAD9vG7pXtwiUn5UmIQxjOSKsunkx4zvsRPMXXao/d6oij3cvRQlj6VqB6U/vKJ3XY3xhsT1i26w9GZYellLa/DN02iM7q0PogFE2JiAD1LbCKYbh0x251mKz/3Xnwv9l9YkshLH0rpH0amTat4Vx27mhRxDssa5dVUvglER2uiS73C/U5Pj00Edynl8Az4aegLD1FejviZl2O/ut3uy2KIYSlb7Ut+aQWXzV8vbsCeHdZZc1hjgh3JC2ENedQVej2RnxzZB765OpNsRvuJKVfciCgkgR6r7wdrsKvszDotDy4bTVanripS5VCWHrQbl9z8OvnQb67bGFNxAFjWgjrbxOHHec3jK3tD66O6enBeUUSSKpnCaSPlszr50Hl3YpW8y2qQODjw/HORwwjhKUH9Tc/rccXB9uFWTEzgY+/YeGmzyIdQQthKSPap5xpM0qu60TqnvTq7/nGdfBM6HoHpAMNbjzQGpvV8vVVkTa9QliRI9zF7urlsoU1l0WuXeOdidmThl9LhvFke6P65rpw8cjonEnomLzoSBwEqE8BMm98AqS5Uk9nMwysmQ/fi/cd9ZEQVuTrYcn6WnxV3/7sSl12NieXV26qjFy7RsJSMVmbehR9QYS+7Q2TQhU63JTiOsiFzBsegzGgKCYTVa/cW+ZdB7PD5WghrMjg7xh3pbQx8/Z8b82wKc/iSBYLcyhtj4Rq/Lklhfcy0a/b29Ijy8Clo/JhSOqZMF2U+t2seCx1bSeGzdxdg+Y5/37E5WghrPAdYDLjhbW1aPCZHZTwHWWVNRXhaz6yp1bCmldaUGDCs6WjcTqqROuasOhJLASofyEyy/4OothnrO14OVoIK/y1cUQ153ZqDPiHXl+5NXSSfptDayUsNebsksKniOia9uOr9MlXnJIv1XVsOiVtxAw3Mssfh0r8F4/G/mY0/WXy4cvRQljheUFVw3nho1qoNMjtGzM/Xb6w5trwtHbeSzthPVI6fIzBVNXxbs7IgRk49dhsnbaLriRHwBg4Au6xU6w7hZQ/EIa6W+j2xnRWgQ2vwzf/VmtMIazwoF+zvQEbd/mO7MyqYUz5opo14WmNEWGpYdpXh24bVpW2V2dZPbL05vzWCYboij8CKvEf9RgIyhsAI78/kD+wldB6qL8PgKrWoztvfPNTN8Pc/L4QVhjur20K4sWPa4+qJhlpGpmuTNG+w1IDdXa/UP37wHw3Jow4nNghDHikS9ojQAYot69FYhaB9RgI5PVv/b2N3HJUiiP7S9us3YXmB69G1o+ekgR+DhfYGxvqsKvu6OQLZpDPunFxzTKH6kKK2/dqSFVHCswpKVoGwviO3STMwSGQIh4WAtTzGIvYjLx+rbsyRXJ5fQ+R3dGPn6pytHvUpUJYDtDuLIyhtXt4NQftDB01wpo7uehKVSyjoxHZXsIVp/SASz0jShME4ogAZfdqfdTsMQiU3Rvu8d8TwrLpD3XQ/q+PD6LpUCWc9t0iydkeavioskZn13WUQXIAH8ot8nk8EJBDd/uof/hZI9Z/2VmV+ejtrpR1USWs2ZOGn02G8U5HGNSgF56Yh355ks3B/hIRyWgjIIRlD+E9dQG8tqGuc2Hib5QtqHnfnibnUlElLGVOx0IVbSbmZhi4/OR8eTR07jPpESUEhLBCAxs02XorWN/SMaLduoajPe6qs81OaCsjkJg9efjJxPQBQEfFM8ijYQTASlftCAhhhYa0m0fBIBvB4eXzt2wLrSV8iajvsKxdVknRQ0SY2hlbXjIqD72y5dEwfBdKT10ICGF1j2R3j4KRVHN24r+YENYjk4YOMMhd3b66TpuRKpBUFa2Qt4ZO3Cay0UBACKtrVNWj4Mvr6lDb3EnSBUadyYGiGxdt2RUNv7TXGRPCUgPOKSm8BUT3dDahoX29GD80J9pzFf2CQLcICGF1Dc/yLQ3YsrfD9ZvD4vyLssqaB2KxvGJGWKq0fZ2vZQ2IOs1/O35oFob2jV1V4FiAK2MkFwJCWJ37a8veZizf0tT5h4wNny2sHlUBHH0KHwX3x4ywrLOsScMvI8PoNKG2ywAuOUnuGkbBx6LSJgJCWEcDdbApiFc+qUWwCzqioHnRDYs3vW4T4ojFYkpYFmmVFlYSqKQzy/MzDYu03K6YmxUxkKIg+REQwjrSh4GgKoZai9rmztkqFmEMHVdVzJlhbsnwY01QNRF1Ws9+aB8vxg+T86zk//on3wyEsI702fLNDdjyVRfnVuqg3cUn3Ti/ZkcsPR1zwlKT6+4AXn0uGUpjuQRkrDYEhLC+XgsbdzVjzfYuzq2UGPOtZQtr7o316okLYVUAxrGlRW8COKezCav076qm4aAenljjIeOlMQJCWK3O//KgH0s/PboMWtvSYOZ3yxbWnEuqIE6MW1wIS83x0dLC4UHQJwA6TTHpVofwo/KRnykJ/2K8JtJ2OCEsoK45iJfX1SLQ9Ts/H/lp5A0vfLo5HgslboRl59EwL8OwSMsjh/DxWBtpN2a6E1aL38SS9XWd3hM8vBji9CjYNn5cCUs9Gg4pLVpFwGldfTsG9vBgwglS8j7t2CMOE053wnptQy321HVdPjCej4IJQVjKiLklhScxYSVAWV2t0YI+Xpwpbw7j8BVOryHTmbDe39yAbV29EbSWATcFyTztRws2fxrPVRHXHVbbxOeUFl0HYF53QEhmh3guk/QYO10Jq+sMDEf4/fqyyupH470SEoKwFAizS4seJeCH3QFy+nFZGDFAru/Ee9Gk6vjpSFghwxfU3gp4rLyyWm0q4t4ShrCe+c6QrFpfZhURjeoOlXMKczCkV2xr18XdS2JATBBIN8Laud+Ht2sauseW+ZM8b/PYKc/u6CYoKybusQZJGMJqO88yAUVaXVZcVWloLhyRiz65kkMrdsskPUZKJ8LaXevHm9X1Xd4RtE6tmBvZoLE3LqhenygrIKEIy3o0nDz8h8RGt8/KXhdhwohc9M4R0kqUhZQKdqQLYe1rCOD1DXXdxVpZ7mQyrytfsOmxRPJtwhGWRVpdZChtD5yQViIto9SwJR0IS5HV0o318AW7D1JnmH8sr9x0c6J5NiEJ640JcG/uUfg8iC7tDjAhrURbTmJPIiNgn6ywpKyy+tJ4XL0JhV9CEpYyes6kEXlsBFcS6IRQpHXRyDyoVMvSBAFBoHME7JIVwNUwXWPKFm3soo5XfBFOWMJSsMy7cliR6TJWgii/O5iyPITzT8hFTylmEd/VJKMnJAIHGgN4Y0M9WkI9BjL2gs2zyhdtqknIiSTaW8LOQJpbUngpE70UCkB131Bd4ZG3h6GQks/TCYFdtX68U9MAVVo+VGPTPKd80aZ3Q8nF8/OE3mG1ATOnZPgPQEbItxUqzfI3hudgcE+J04rnopKxEwOBnQd8eLemAWZorgJM/n7ZoponEsPyrq1ICsKyzrS6qbrTfnpqQure4fF9hLQSffGJfdFDQN0LXLa5wV7CqjhnYHCCQtIQlprU7NLhDxCMn9uZ4GlDsnDiILnGYwcrkUktBDZ80YwPbAamJ2r4QlceSSrCYoDmlhQ9B8JkO0tseD8vxhyfDUOlMJUmCKQ4AiYzVm1rxKY9XdUP7AAA86IbFtaUJmL4QkoQlpqEdefQn7WUgHF21t+AfDfOKcyVJIB2wBKZpEVAHaq/U1OPXbUBW3Ngxluug/5Lr1+6tdlWhwQRSsqtxxNXHNeryeNdQqAxdnDMyzSsN4g5GRKrZQcvkUkuBGqbgni7ph51XZTjOno2vNrTWHfeD17ZFeLmc+LhkJSEpWB0SloqKl69QVQZTKUJAqmCgCoYoXZW3eRg7/gcuDrT77v4317Yvj8ZMUhawgqHtFSfU4dkYaQcxifjWhWbOyDwyefNWLvTSdYXTmqyUtNPasL6mrQy3iVgpN0VPaiH2wp9yFCleaQJAkmGgC9g4r1NDfjS5nlV6/SSn6xSgrDUJB6+6vhBrqBnSajkf+3XZbaXcPZwiYxPsu9q2pur7gSq86omn51o0ENUxbwOzc3nlb+8Y1+yA5j0O6w2Bzz8nWE9XH7XK3bfHqp+hirXc2w2ThiQkex+FPtTHQFmrP+yGR/tbLYXud6GB/MbAa85eeqzmw+mAkQpQ1jWTmviMdluV87TAK504pxjergxblgOMuUR0QlsIhsjBJp8JlZsbcQXB/1OR3w+z+O9esqz62wGZjlVH3v5lCIsBd8z34Grzlf0OAjXOoEzw00Ye3w2ju0tV3qc4Cay0UXgs30+i6zsXF4+whLGU3ne6u9PeRZdFxqMrulR0Z5yhNWG0uySot8S4ZdOURvSy2MRV6ZHDuSdYify+hBo9ptYua0RO/Y73lWBGb8rX1j9K33WJI6mlCUsBfHskqKpRPxngBxFjKrd1vihOTimp8RsJc5STR9L1K5KkVVLwP7Beis6HGSmn5YvrH44VdFKacKySKt02EXExvxQSQA7c/DxfTw4/dgsZHoc8V2qrhWZV5QRaGgJYs1nTWHtqsBcy2ReVV65+bUomxlX9SlPWArdOZOGjoDhVkkAC5yirRIDnjQo0yrgashTolP4RN4GAqYJfLq7GR/vbEbAVvKqDkoZG8CB0rJFWzbaGC6pRdKCsKyd1qVDelNm1tMgXByOx/IzDYwryEHfPCktFg5+0qdzBPbWBbBiawNqbd8DPIqsXgUbVyVqDnbdfk8bwmoDbnbp8PsIxv8LF8hhfTMwekimHMqHC6D0sxBo8pv4aEczNu9tCR8R5rvLFtZMC19B8vVMO8KydluThl8Gw3iCgN7huEwdaZ0wIBMnDsyUtDXhAJjGfVR4gkqwt2FXC4LhPP61VmTez0zX3Lioekm6QZmWhKWcPLdk+LEmGf90EhnfcXFkugmjBmdieF8530q3L47T+apzqk17m7FuZzOaHb/9+3o0Bq9iA6U3zq/Z4dSGVJBPW8JSznvmO6O8tf6W3xPoPyJxZn6mC6cOycTgXhJ0GgmOqdr3s/0+6/GvtjmCGE5mJuA3/h01M6augvPgrBQBN60Jq82Hj5QM+5ZBxqMA9YvErz2zDJw8OAtDhLgigTFl+u5URLWzCQeazMjmxPic2SwrX7QpZLm7yAZK/N5CWId89PDEE/q6DfNBEH07UrcJcUWKYPL2Z2aoHZXKVRUxUSkYmP8Z8JrlqXJ5OVLPCmF1QHBOadHVAD8Y6W5LqVXENXJQlpQci3SVJkl/VVpr3edN4YcoHDFP3gPQTWWV1c8lyfRjYqYQVicwW7stl/k3gC7X4YUcr2GlsFEhER63QK4D00TR0RIwsXlPC2p2+9Dgi/DRr21SaldlGjdNXfzp3kSZZ6LYId+ebjwxe9Lwa4nofhAN1OEwFTVf0NeLE/pnIC9TrvvowDReOuqag6jepeKo/OFFp3diODNvB/HPyys3VcZrXok+rhBWCA89fnlhfnMGTwMb/0UEbWHuQ3p6MLx/BgZJUYxE/44cYZ/KSbVpdwt2HND3oo4ZAQLuD5gNFVMXf96YVIDE2FghLJuAPzK5aKRh8mwQfcNmF1tiWV7CsD4ZGNYvAzkZclnRFmgxFmpoMa2IdPXHSWpiW2Yyv2caVH7jgur1tuTTXEgIy+ECmFNaWMZM9xKhr8Ou3YsTMDDPjaF9M6BycrlU/mZpcUPANBk7DviweY8PX9YFAKeZXkJYzsAXBJ5RVlkzJ26TTMKB5VsRhtPmTBqRRxT4GcP4NQh5Yajotos66xrc02M9Lg7q6YbXJTsv3Rh3ps8XNPHFgYCVinjnAb/zLJ92jGTUMeE3+Z6m3095doeTGl12tKe8jBBWBC6ee3lhPzMDd4DpRp3nW+1NUhutfnluHNPDg8G9PMiV6tUReOzorvUtQYucvtjvx+76gLMCDw4sUedUIH7EaMHtN7xYs8dBVxFth4AQlobl8NfJw04wTON3RDRRg7puVahrQAPy3eif50b/fA9UdlRp9hFQWTx31/qxuy6AXbV+TTFT3Y/PwHyTgrf+aMHmT+1bKpKdISCrXeO6mFcy7JQgGXcRqESj2m5V9cpuIzAP+ua55PGxA1rqMW9vXRC76/zYVRvA/sYI7vM5dSrzIgPm9OsXbv7IaVeR7xwBIaworIx4EJc1DQJ6ZBjok+tu/ZPjRo8sA0Tp4WZ1LeZgk4mvGgL4qj6ArxqCOKguHGs+MO9uyTDYJOCfBpszhaj0f7nSYyXrx82WRou4YEwjomtsdYiCkMrd1TvbjZ7ZLvTIch3+mexvIQNB0yKnA02B1p+NQexvDMAfww1UR3cx89PEwdvTIVVxFJaqLZVCWLZgikxo9lVDjyfTdTMYN4RTDCOy0TvvrVI+98xyIz/LsKLu8zINKw4sI8GKyaqrLyoOqq5Z/QmiVpFTc8D6mQhNJdMzgL+aruCD5fO3bEsEm1LZBiGsGHpXRc23ePHvIPwcoKIYDm17KK+LkJ/lQl5GK4F53Qa8LiDDo34SvG6ysqxGWrexOWDCZ/0BfAFGS9CEz8/wBfkQQQUtklJ/T8zG1Qz+UzDYNFei02PnISGs2GF9xEhzJxeWMGOqrgvWcZpGGg7LLxLh4RsW1CxMw8nHfcpCWHF2wWNXnjDY7+brCSgLpwxZnM1Pl+G3qqza7gDN/eHzn+5Ml0kn4jyFsBLEKwzQvJJhF5kwygGUElFGgpiWrmb4AK40TZpdvqj6VYrpu8Z0hTz0vIWwQmMUcwkrQ4SXrgR4EgiXEahHzI1IwwEZfBCMlwBalOnj57//Yk1tGsKQ0FMWwkpo9wAPj4HHPXj4OTBoEqD+YFiCm5xs5m1mmIuNIBb5P9/0djoXeEgGxwlhJYOX2tmorgG52biIQRcxcEG4tRWTbNrazGVgHwFvMPPrxMHXJGZKG7QxUSSEFROYozfI7EmFp4P4IsC4AMRny+PjkVi3PubRu8RYSsyv3bC4ZnX0vCGao42AEFa0EY6hfnVwP3ty0YkuE2cy4Uwwn8WEUQRKi/w01rUYxjoAy5ixzCAsu35hzXo5MI/hIozyUEJYUQY43upV7i7TCI4xgNPAGM2E0cQYBaLMeNsWyfjM3Aiij8G8lojXsml8SDDWlC3aWBeJXumb2AgIYSW2f6Jm3ZxJQ0cwXKNBOJnIirovZOZCIuoVtUHDUKyuvhBRDYAaZq4G42MXBz66fvHWDWGoky5JjoAQVpI7ULf580oLegaC7hNdLhSajGEE6gtwbxB6g6k3iHszU6/IU0TzHgb2g7EPoH0g3kesfmIvMzaBAjUu8KfXV249oHuOoi95ERDCSl7fJYTliuB8Bmd5WjKyAoaZRS7ONIizlHEmUxMHqdltGk3+jJYmr0lNQkAJ4bakNUIIK2ldJ4YLAumHgBBW+vlcZiwIJC0CQlhJ6zoxXBBIPwSEsNLP5zJjQSBpERDCSlrXieGCQPohIISVfj6XGQsCSYuAEFbSuk4MFwTSDwEhrPTzucxYEEhaBP4/3KPLlSi9aDoAAAAASUVORK5CYII=;" vertex="1" parent="1">
          <mxGeometry x="-1137.5" y="527.5" width="95" height="95" as="geometry" />
        </mxCell>
        <mxCell id="szpw3MNMhI2yVc2b8Nyr-15" style="edgeStyle=orthogonalEdgeStyle;rounded=0;orthogonalLoop=1;jettySize=auto;html=1;entryX=0;entryY=0.5;entryDx=0;entryDy=0;strokeWidth=4;" edge="1" parent="1" source="szpw3MNMhI2yVc2b8Nyr-3" target="szpw3MNMhI2yVc2b8Nyr-1">
          <mxGeometry relative="1" as="geometry" />
        </mxCell>
        <mxCell id="szpw3MNMhI2yVc2b8Nyr-3" value="&lt;font style=&quot;font-size: 36px;&quot;&gt;https://mini.kbsec.com/*&lt;/font&gt;" style="text;html=1;align=right;verticalAlign=middle;whiteSpace=wrap;rounded=0;" vertex="1" parent="1">
          <mxGeometry x="-1550" y="560" width="60" height="30" as="geometry" />
        </mxCell>
        <mxCell id="szpw3MNMhI2yVc2b8Nyr-9" value="&lt;font style=&quot;font-size: 36px;&quot;&gt;NLB&lt;/font&gt;" style="text;html=1;align=center;verticalAlign=middle;whiteSpace=wrap;rounded=0;" vertex="1" parent="1">
          <mxGeometry x="-1310" y="630" width="60" height="30" as="geometry" />
        </mxCell>
        <mxCell id="szpw3MNMhI2yVc2b8Nyr-10" value="&lt;font style=&quot;font-size: 36px;&quot;&gt;ALB&lt;/font&gt;" style="text;html=1;align=center;verticalAlign=middle;whiteSpace=wrap;rounded=0;" vertex="1" parent="1">
          <mxGeometry x="-1120" y="630" width="60" height="30" as="geometry" />
        </mxCell>
        <mxCell id="szpw3MNMhI2yVc2b8Nyr-14" style="edgeStyle=orthogonalEdgeStyle;rounded=0;orthogonalLoop=1;jettySize=auto;html=1;entryX=0.5;entryY=0;entryDx=0;entryDy=0;strokeWidth=4;" edge="1" parent="1" source="szpw3MNMhI2yVc2b8Nyr-13" target="szpw3MNMhI2yVc2b8Nyr-2">
          <mxGeometry relative="1" as="geometry" />
        </mxCell>
        <mxCell id="szpw3MNMhI2yVc2b8Nyr-13" value="" style="shape=image;verticalLabelPosition=bottom;labelBackgroundColor=default;verticalAlign=top;aspect=fixed;imageAspect=0;image=data:image/png,iVBORw0KGgoAAAANSUhEUgAAAgAAAAIACAYAAAD0eNT6AAAABHNCSVQICAgIfAhkiAAAAAlwSFlzAAAOFgAADhYBedMUogAAABl0RVh0U29mdHdhcmUAd3d3Lmlua3NjYXBlLm9yZ5vuPBoAACAASURBVHic7N13mCVF1cfx72EXWFiCZMk5g6xESZKDkkFQkSCggIrhRUAQUFEBCSoqIGBAQETQJSwZJOe05Jxzzmlh2T3vH9UDw+zs7A2nuvve+X2epx8MzKnqnju3T1dXnTJ3R0RERAaXyarugIiIiJRPCYCIiMggpARARERkEFICICIiMggpARARERmElACIiIgMQkoAREREBiElACIiIoOQEgAREZFBSAmAiIjIIKQEQEREZBBSAiAiIjIIKQEQEREZhJQAiIiIDEJKAERERAYhJQAiIiKDkBIAERGRQUgJgIiIyCCkBEBERGQQUgIgIiIyCCkBEBERGYSUAIiIiAxCSgBEREQGISUAIiIig5ASABERkUFICYCIiMggpARARERkEFICICIiMggpARARERmElACIiIgMQkoAREREBiElACIiIoOQEgAREZFBSAmAiIjIIDQ0V2AzmwyYBfgsMHvxz1mAIbnaFBER6WDjgJeBF4EXiuMldx+XozFz97hgZksDWwCbA59DN3sREZF2jAduBUYBo9z97qjAbScAxU1/R9JNf8GITomIiEi/niAlA8e7+33tBGo5ATCz+YFfAdsC1k4nREREpCnjgZOBn7v7U60EaDoBMLNZgAOA3YEpWmlUREREQnwAHAsc4u6vNPODTSUAZrYVcCIwbVPdExERkZzeBLZz9/Ma/YGGlwGa2YHAf9DNX0REpG6mB84xs582+gOTHAEws6mAvwNfa69vIiIiUoIzgJ3c/b2B/qUBEwAz+wxwCbBCbN9EREQkozuAdd391Yn9CxN9BWBmQ4DT0c1fRESk04wAzjCziRb8G2gOwG+B9cO7JCIiImVYm3Qv71e/rwDMbBfgrxk7JSIiIuXYxd3/3vd/nCABMLMVgWvQGn8REZFu8CGwurvf3Pt/7C8BuBFYqcSOiYiISF63uPuKvf+HT80BMLOvoJu/iIhIt1mhuMd/7OMRADObHLgPWKiCjomIiEheDwFLuvtH8OkRgF3RzV9ERKRbLQLs0vNfzN0xMwOeAeaorFsiIiKS27PAPO4+vmcE4At0183/LdJQx5OknZIkn7Gk5PEB4PWK+1KV90h7dLe2t7aISHnmJN3z6akQtFl1fWnZ/cCFpJv8872PvvWPzWxGYPY+x+LAxsDMJfa5U70NXADcSZ9rDbzivZaSmNmUTHit5wLWA5Yrt9tZnQuMBG4D7nf3cUXp7GVJ1TN/SDp3EZG62RS4vucVwAPAolX3aBIcuBk4CzjL3R9qN2BR7ng1YPPimK/dmF3kBWAUcDZwmbt/2G5AM5ubdJ23AFbnkwS0k7wC7OHupw/0LxVJ55+AbUvplYhI4x5w98WNdON/oOreDOB64J/AOe7+XM6GzGwE6Qb1TWDenG3V1CvAiaSb/o3uPj5XQ8UNchPSLpMb5mon2K3ARu7+UqM/YGbbkj6/lq1XIiLNWwTgB6Sn67oddwFfdnfKPoApgf8j3RCrvg5lHO8CvwKmq+h6r0KqPln1dRjoeA9YpMXzO6YG/dehQ4eO3scPJgPmoV6eBHYERrj7BVV0wN0/cPffAwsAB5O+/LvRR8DxwELufqC7v1VFJ9z9endfnTQicE8VfWjAfm28dtoHeDSyMyIibZp/Muoz+/9VYE9gUXc/Oefwc6Pc/S13P4BUH+F40g2zW5wJLOXuu7v781V3BsDdzwOWAXYCnqq4O709CPyx1R9293dJSYCISF3MUZcE4GpgMXf/vbvXbtmeuz/v7ruTJgy+UHV/2vQusKW7b+XuD1bdmb7cfby7/4O0SmNkxd3pcV3vlQ4tujakJyIiMWavQwLwV2Bdd3+l4n5MkrvfRFriNbrqvrToCWAVdz+r6o5MSrGUc2vgINL7qird1m6AYuLg0wF9ERGJUGkCMA74obt/293HVtSHprn7M6SRgDOq7kuTrgZWdPe7qu5Iozz5BfBVqp2HcWvN4oiItGv2yYDhFTT8BmmGf8vvVavk7u+7+1eBn1P902kjTiCNsrxcdUda4e7/IdUNeKaiLjS87K+kOCIi7Ro+2aT/nXDPASu5+yUVtB3K3X8JfB2ofMLiAPZ29906aZSlP+4+mvT65d6q+yIi0g3KTgDGAFtEVPGri6Ii3L5V92MijnX3I6vuRBR3f4G0VPDVqvsiItLpyk4AvuXuN5fcZnbufgRwStX96OMKUj36ruLujwNfIW1CJCIiLSozATjM3U8tsb2y7QrcVHUnCo8BW7t7N9Ut+Ji7X0mqYCkiIi0qKwE4H/hpSW1Vwt3HkDa5ebbirrwNbOruXT1M7u7HAX+uuh8iIp2qjATgfmDbOlT2y62oqLc5aa5DJV0AtnP3wTJR7gfAlVV3QkSkE5WRAHyrqhrzVXD3W4HDK2r+n+4+qqK2S1e84tgJqF31SBGRusudAJzp7tdnbqOOjqD8Nd8fAAeW3Gbl3P0J0m57IiLShKEZY38E7Jcx/qeY2aLAmqTKhp8FZgU+BF4sjseA/5VRDMfd3zGzgyj3xnSMuz9ZRkNmNi2wDrAoMFtxTENKel4k7ZdwLXBnQA39RhwM7Ax8poS2RES6Qs4E4C+51/ub2QjgW8CXgfkb+JHxZnYrcB5wXOZk4ATSMrxFMrbR403STTAbMxtOutabkUohT97Ajz1vZhcCJ7n71bn65u6vmdmhwGG52hAR6Uae4XgbmM3dyXEASwL/JVXga7WP7wCHAjNm7OeWma5v32PfjOcwFfBj0tN9O338H2kjolz9HEbaQjjH9Z0vqI/HlfR50KFDh45JHrnmABzp7i9GBzWzyc3sKOAuYCvA2gg3nFTB73Ez+3pE//py9zOBG3LE7uVZ4A85ApvZGsDDwJHALG2GWwe4zsxOM7Np2u5cH8UyzEE3B0JEpFU5EoCxZLghmdnswOWkYfXIfk8H/MvMjjKzHK9EcpfiPdbd348OamZ7A5cBcwaH/hpwi5ktERwXUjXG8MRTRKQb5UgArnL3NyIDFhP8RpPePefyQ+B/ZjZVcNyLyVsX4KzogGZ2Kmkp45Do2IXFgJvNbL3IoEWtiXMjY4qIdKscCcA5kcHMbErgdNLM/tzWAP4WGdDd3yU9SefwkLvfHxnQzH4EbBsZcyKGA/8pkrtIoZ8/EZFuVfsEAPgtsExwzIF83cyily+eHRwvS1wzW45yZ9JPD4wys8jle/8D3g2MJyLSlaITgNHu/nRUMDPbAvheVLwm/NrMVgyMdy5p1mW0sOH/Ym3/v4EpomI2aBHg6KhgxWTAi6PiiYh0q+gEIOzp38zmIng4vgmTEfgkXKyIuDEqXuF5YncfPBZYKDBeM7YtajpE0WsAEZFJqG0CAHwXmCEwXrPWNLMNA+NF35RGRVXZM7N5gW9ExGq1C8BvAuOdD4wLjCci0nUiE4APSevz22ZmRjkT0SYlcl35LYGxouNtS3s1FSJsYGYrRATytBXyYxGxRES6VWQC8Hxg3ffVgHmDYrVjZTOLWn3wXFCcHs8HxtouMFY7tgyMFX29RUS6SmQCEPmFW+VwdG8GbBwUq5YJQPHuPUdRnlZsEhhLCYCIyABqlwAU1fi2jogVJCQBcPe3iF2eFjUCUIdXLT2WNLNGNnVqhBIAEZEB1C4BINWcnzEoVoTFA2NFXaNxpM15IkQX4mnXYkFxlACIiAygjgnAdEFxosweGCvqGr1UlL2N0K3XWwmAiMgA6pgATBsUJ8q0ZjZ1UKyoaxQ5AbBu17uuky5FRLpKZAIQtQFQ3Z5IAeYJihM1B+DNoDhQv+tdt2stItKVIhOA2YLi1O2JFGDZoDhRexrMGhQH6ne963atRUS6UmQCMEdQnNeC4kRart0AZjY58LmAvkDsvIS6Xe/PFdeqXW3/zkREulkdE4CbgTFBsaIsHxBjKWDKgDgAM5pZ1KY9VwXFiTIl6Vq1K+J3JiLStWqXALj7B8ANEbECrWZmq7YZY9+QnnwiarLclUFxIrV1rcxsbSCkrLCISLeqXQJQqNtT6WTAP1pdDWBm2wDbxHYp7DVA3a41wDbFNWtasa3x36l+bwMRkVqrawJwZWCsKAsBRzb7Q2Y2B2mr3WghCUCxVfEDEbGCHVtcu2b9gXrsIyEiUmuRCcCsQZO3AG4kdq17lO+Y2Sgza+jma2ZbArcDM2Xoy5yBsc4KjBVlJuD24hpOkpnNZWYXAjvl7ZaISHeITAAmA74YEaiYB7BXRKwMNgHuNbOdzewzff9PSxY1s38DI4ldstfbWoGxDgGeDYwXZVZgpJn9u7imEwzrm9kMZrYrcA+wYek9FBHpUAZEbeELcLS7fz8qmJldCawRFS8DBx4FbiONWCxDWn5WRnGdd4GZ3T1kxYSZbQ2cERErozdJ1/pO0gjI8sACJbQ7v7s/0W4QMzsO2K397oiItC86AXjK3cPev5rZksAdwNComF1mU3c/NyqYmV0MrB8Vr4soARCRrhP5CgBgHjOLquSGu99LmtQl/dsiON4ewAfBMUVEpIaiEwCAzYLj7Q/8Nzhmt9jEzIZEBXP3h4GvAO9HxRQRkXrKkQBsHhmsmBD4VfIspet0MwOrRQZ09/OAdahfiWAREQmUIwH4nJktHBnQ3ce7+/eAAyPjdonoAkO4+w2kxOLp6NgiIlIPORIAgF/kCOruvwa+CbyUI36H2tnM5o4O6u73A6sAl0XHFhGR6uVKAL4eORmwN3c/CZiPNGHtyRxtdJhhwEE5Arv7M+6+LrAycC6xK0ZERKRCuRIAAw7LFBt3f9/djyGV590RGA2MzdVeB9ihWDKZhbvf6O6bkuocnAa8nqutmlLiIyJdJ7oOQF8buPslGeN/zMyGAvMDi/Y65iXtUTAHMGMZ/ajQKHePXoExUWY2C59c50VIyVjPtZ4diCoLXQeqAyAiXSd3AnAHsKy7V/4EZWZT8skNag5gCWBTIMurioqs5u7XVd2JomTvzHxyrecB1iWV6p2mwq61SgmAiHSd3AkAwA7ufkrmNlpWTKDblFS/YE06+8n1OmD1OiRc/SmSsHVI13pT4LPV9qhhSgBEpOvkmgPQ25/MbLES2mmJuz/t7se4+/rALMC2wFUVd6tVq5JpBUYEd//A3S9w991IIwMrA0ehwkMiIqUrIwGYHjjXzGYooa22uPub7n6au68JbEzaYa7THGhm4bUBonlyo7v/H2kOwd+B8RV3S0Rk0CgjAYA0Qew/xUS9juDu55Nmve8MPFNxd5phwIm5lmHmUCw33AX4HHBe1f0RERkMykoAIL37ParE9tpWVCA8EVgY2Je0HW0nmBo4x8w65R07kDZ/cvdNSFtA31x1f0REulmZCQDA98ys4yZBufsYdz+MtGLgvqr706C5gLOLiXcdxd2vJs0P+F3VfRER6VZlJwCQJgXuUEG7bXP3x0g3pvOr7kuDVgJGmtm0VXekWcXoy49Jr2A+rLo/IiLdpooEYHLgJDM73MyqaL8t7v4WaQnbEVX3pUEbATeY2QJVd6QVxSuYtdH+DyIioaq8Ae8NjDKz6SrsQ0uKp9N9SGWIP6i6Pw1YErjZzNaquiOtKIobrQDcWXVfRES6RdVP4J3+dHoysB4wpuq+NGAm4BIz+27VHWmFuz9FqnNwddV9ERHpBlUnAJBK8t5sZhtW3ZFWuPs1wC5V96NBQ4FjzOx4M+u4krzu/i6wJfB41X0REel0dUgAID2dXmhmF5nZMlV3plnu/i/g0Kr70YRdgUfMbPdOqs0A4O6vApsAb1fdFxGRTlaXBKDHBsBoMzvZzOapujNN2h84p+pONGE24M/APWa2RdWdaYa73wt8A1UOFBFpWd0SAEh92h54yMyONLOO2Ma32IBnO+DuqvvSpEWBM83sOjNbperONMrdzwV+WnU/REQ6VR0TgB5TAj8GnjSzM8xsWzP7TNWdGoi7v0NaIvhq1X1pwSrAdWZ2s5ntb2ZLVd2hSSmKM51adT9ERDpRGdsBRxpL2qnvHOAcd3+64v70y8z2AP5UdT8CPEZxrYFr3X1cxf2ZgJnNBDxK2nQqF20HLCJdp9MSgL7uA54AnutzPFv88yV3L/09sZlNXvRtobLbzuhV0u6Ifa/1x4e7v1dFx8xsP+CQjE0oARCRrtPpCcCkjANeIN2gngAuBs519+xV5YoteU/P3U7NvMknCcFNpJGDW4r5EdmY2VTAw8CcmZpQAiAiXafbE4D+jAduBI5y9//kasTMjHQTXCFXGx3ieeA04Dfu/nKuRsxsF+CvmcIrARCRrlPnSYC5TEaa8HaGmd1kZl/M0Ujx1LtPjtgdZnZgT1Ldgf3NbOpM7fyDztmpUUSkcoMxAehtReAqMzs6R0Ecd78SuCA6boeaDvg1cJeZLRkdvJiguG90XBGRbjXYE4Ae3wMuLWaUR+uG1QCRFgRuNLPNogMXtQGeiI4rItKNlAB8Yk3gJjObJTju5ahsbV/TAGcV7+2jdVI1RhGRyigB+LQFgf8Wy/hCuPuHwIVR8bqIAX82s9WC4yoBEBFpgBKACX0R+GNwzLOD43WLyYGRwfs+XAO8FhhPRKQrKQHo3+5mtl5gvAtIVQxlQrOSNiUK4e4fAedHxRMR6Va5t4J9G7gMuA24lVSydXFg+eJYB5gicx9adbiZLRtRxMbd3zSzK4HIpKI/N5NqHNwKjCbNvO+51msCdd1h8ctmtpa7XxEU72zShlIiIjIAz3RcDMzj7kzsAJYCbsnYh3aP7QfqfzMHaaVBrn6+BGw9ifaHAYeTqiNWfV37O24BLOhaDwfGBPZtvqB+HVeD66xDhw4dDniOVwAfALu6+wbu/tRA/6K73wOsDBxQdKhufhwYK9c2waOAJSdV1dDdx7j7PsCqwOOZ+tKO5UnzL9rm7u+SNjISEZGJyJEAHOjuf2n0X3b3j9z9YOD4DH1p1zJmtkBQrOeC4vT2APDVZkrsuvuNwFeAjzL0p12bB8bKcb1FRLpGdAJwPfDbFn92H+DJwL5E2TIoTvQNaTywk7uPafYH3X00cHBwfyJEFgdSAiAiMoDIBGAc8M1Wt99197eB7wT2J8pGEUGKrXLfjIhVOLp4mm/VwdSvdv78ZrZoUCwlACIiA4hMAB5w94fbjHEpafJWncwXGCvypnRuOz/s7mOpZ4GiOr9yERHpGpEJwK3tBijWcN8Z0JdIswXGirwp3RYQo+3fWQZzBMVRAiAiMoDIBCDihhQZJ8pUZjZdUKyom9Jj7v56QJy6XWtQAiAiUorIBOCZoDj3BMWJFLWH/XtBcZ4OivMIadlmndTtWouIdKXIBOCzQXGeDYoTZTzQ8DK7SZg9KE7Ia4miymHdnpSfD4oTda1FRLpSZALQrUO3r7j7uKBYUdco8uZWt+sd1Z+oay0i0pWUAEzaC4Gxoq7R9GYWNVRet+utBEBEpAS1SwDc/TnqVRDo+oggZjYZsSsKol653BAUJ8L7wB1BsZQAiIgMoHYJQOGcwFjtOisozmzAkKBYEPcaoE7X+tKiYFIEJQAiIgNQAjCwN4ArgmJF35BCEgB3f4x8GxU1K/L3rgRARGQAkQnATGY2PCjW1cCAOwmW5LSiYl6EeYLi5Ij3z8BYrXqH2AQg+nqLiHSVyATAgHUjAhUVAQ+MiNWG94BfBcZbPzBWdLw/Uf3yyyPc/dWIQGa2DDBrRCwRkW4VvRtg5G5u/6TassC/dfeQNelmZsCmEbF6WcvMpo8I5O7vAz+LiNWiF2h9F8n+RH4ORUS6UnQCsEkx271txa6CPyTtMli2x4EjAuMtT/w76SmALwfGOwm4OTBeM/Z293cD4ykBEBGZhOgEYGZg1ahg7n4VsGdUvAa9C2xWbE8cZfPAWFniFsWOtiSuEl+j/uTuYXMQzGxuYNmoeCIi3So6AYDgpy93/yPwl8iYAzUH7ODu0bPicz2RfsnMpowK5u7PkpKAsvYHuIz4BE9P/yIiDRiaIeZmwF7BMb9H6utOwXF7+xDY3d3PjAxqZgsCS0bG7GVaYB3ggqiA7n6jmW0B/BuI2gWxP5cC2xQTPiMpAZCcXgIeAB4jvSp8jDSHZSpgODBNccwBrEx6/Teskp5W5yVSAbXbSEup3ymOd0kPWfMB8wMLFMcSDL5rVAs5EoCFzGw5dw/barZYirezmd0DHE5sQR2AF4Et3T2k6l8fX8sQs2/8sAQAwN0vNLOVgFHAwpGxC0cBewXusQCAmX0WWCMypghp18yzgDOBm4pNtBpiZlMAnwdWAdYjJexT5OhkhV4mfVdcBVzv7o8288PF8vENSMn7xsCM4T2UifIMx4XuTo6D9Ad0b2BfzwTmytTXGYDXMl3jnuMjYIlM/f8M8NeijYi+PgV8NeNn48+ZrvF8Qf07LvNnQUfcMRY4AVgq+DM6PbAdKaF4rwbn2erxDGn58JrAkMDrM4S0nPyKGpzjYDiyBV4n4xf9EGCX4kPYav+uA1bJ1cein0eU9Es8J/N5LAmc10b/Xgd+AgzL2MdFSV/aOa7vfEF9VAJQ/2McaQnyQjn/porPw3Bga9LrtrdrcO6TOh4DjiS92rASrs86pFcJVZ93Nx/ZAt+W+0MCTAlsRJok+GIDfbob+DWwQgkf3nmBMSX+Ilct4ZyWAH4K3ASMn0R/3gD+BXwVmLaEvp2V8drOF9RHJQD1Pq4Elsz9WZ3IZ2MYqVbISaSEuepr0XM8ABwMLFvFdSmuzUa097CnYyKHFf8hl2+4+78yxv9YUX9gEdLkmzlJtfLHkLaXfQ540tMs91KY2cnA9mW1R3r3FrYEc1LMbBbSBJ45imNa0mSonuv9oMeVUZ5UX1YFrs3YxELe5HvN/pjZxqRJYZ1mJlK/lyFNdus2TppbtL8Hz0tphZlNDqwNbEVa6jtLyV24CxgJjHT3e0tuu19mNitwGum6SJDcCcATwGLuXtayslowsxHAaNL1LdMW7n52yW1WzsyuI02yymVVzzNBtKOY2VBgBPA7YPWKuxPlDWBHdx9VdUf6Y2ZDSNd6K9IS3VybXN3CJzf9RzK10ZbiWhwM7EP5361dKXcCAPATdz88cxu1UZT9vZT0/qpsDwAjBlPCZWbbAKdnbmZrd/9v5jY6RjHa9iPSl3EnL996gjRX6bGqO9KI4rvlC6RkYCvScrpWjSe9Xx8JnOnuddh8rSFmtjXp9WKOVWyDShkJwFhgXXe/OnM7tWBmB1FtXf2T3X3HCtsvjZktBtxImlmd0w89FaSSXsxsZeAa4pflluEl0shOLZ92G2Fmy/JJMrBoAz/yEWmp3kjgLHd/IWP3sjKzHYET0UhAW8pIAABeIU28e6KEtipjZl8BzqD6D+Ve7h65uU7tmNkMpMmIOeoU9HWCu+9WQjsdx8x+Q1rh0UneAtZ099ur7kgUM1uSlAisDixGmgc1FniUtGz6AmCUB+24WQdmtiexm4gNOmUlAJBm4K/i7u+U1F6pivf+1wFTV90X0vDexu5+YdUdyaF4F3ghqbBKGZ4H5vRiSrJ8oihFPZq0QqQTjAE29LTPSNcys6mBD+owqTEnMzsE2K/qfnSqHHsBTMzSwCnFe6yuUsxQPYd63Pwh/V5PK4bIu9FvKe/mD2lFyQolttcxivkmv6u6H004oNtv/gDu/l633/wL+5NeQ0kLykwAIC1p+WXJbWZVlPo8E5in6r70MT0wysw+U3VHIpnZLqRtosv2lQra7BS3Vt2BBt0J/KHqTkicYlRud9LrDmlS2QkAwAFmVuUkuTBmNj3pyb+09fdNWhi41MzmrLojEYqb/58rav47xUiPTOhe0tB6nY0HdvP4zaekYu5+H6mOgzSpigQA4CAzO93MOraoiJktRJqBvmHVfZmE5YFbis19OpKZDTGzo0j7EkxeUTemAX5eUdu1VtxU76+6H5NwnLvfVHUnJJtfkyY8ShPKnATYn9HAZu7+TIV9aJqZrUOa7d9Ju1Z9AHzb3U+puiPNKF5hnA6sX3VfSMuolnb3B6ruSN2Y2cvAzFX3YyLeAOZ39zeq7ojkY2abAYOuEFo7qhoB6LEsHfZ0ambfAy6is27+kPZNONnMDi8KudSemS1CGmWpw80fUuGRkWY2bdUdqRMzm5f63vwBfqubf/dz93PonPkotVCHG8FngavM7DvF8q5aMrMZzOwvwNF0dgWqvYHzzGzuqjsykKKmwk00VuCkTEsAp3bjapY2LFd1BwbwKpr4N5joNV0Tqn4F0Nf9wH5FJlcLZjYM+AGwLzBDxd2JNIa0n/eh7v561Z3pYWZfBA4jlTyts6NJFQLHV92RqpnZGaRtbesoaynyYlOsL5B2/3yC9B76scFUjnsgxWjZIqQJyXMB9wA3uPubGdu8gfp/f9RG5VsS9nNcB6xW1faTRb2XIcAuwNM1uB45j9dIm2sMq/h6Lw2cV4Pr0cxxPjB9ldet6oO0QU3Vv4eJHS8CU2c67+2AhybS7hhgFLAjMEPVv6MKPhNzk5bqXg2M6+f6jCNtPrRWpvbXrcFnr1OOyjsw0DGKNOmqzA+vkeoV3FeD8y/zeBrYCRha8vWej7QHen9fFJ1wPAAsU/WXbhUH6b3/izX4HUzs+L8M5zwvaQ5Qo30YC1wM7AbMWvXvLONnYUHSg8RNpCWXjV6fE4EZM/Tn6hp8/mp/1O0VwMTcRZrdebZnqN9dFPNZC9gC2JRU+W2weo30ZHsWcLG7vxfdQDG5b3PS9V6J6vdOaNd44BTgQHd/uurOlMHMliIlbstW3ZeJeA5Y0N3D6hOY2UzA7aQn3FaMB67lkx34Omr1U1/F/gNbkvYgWKaNUNcDa3hgjQYzWwO4MipeN6s8C2nyeAI4ClgTGNJGhjgtsA1wGvBmDc6rjsd7pEJH3wRmbjMjX560VvfeGpxXruN94HhgA2CKqp/KMj3pDQV+SlpWWvX1Huj4XvB5G2lDnaj+jSetcNmblKhU/rtt8DosS9oG+oHg39fhGfp6WQ0+h7U+OmUEYGLeIQ1dP9/P7fOPywAAIABJREFU8QJp6dvsEznmorqiMp1oHPAs/V/r50m/i9no/1rPSXdNoGzEW8AlpC/K54rjZdIXf6eZiZTALQesSPo919nTwELu/mFUwBJ2nruDVFJ8pKfKdrVQrHb5Ap9sOzxfpqYcWN/d/xcV0MxWIc0nk4no9ARARKSv3dz9hKhgRcnvxykviX2A9JpgpFewZXGxHPuLpOH9LYE5Smp6tLuHLik1s4tII3LSDyUAItJNHgcWdfewzWHM7CCgqv1LHqdIBoCbvBjbjmZmkwPrkJ7yNwNmydFOA7Z097OigpnZiqSJidIPJQAi0k12dvcTo4KZ2Yykm/B0UTHb8Cxpcu5I4Bpvc7vfosbJBqSb/iZAHXYOvQsYEZnomNko0vlJH0oARKRbPAws3u6NsTczOwTYLypeoNeAa3odo30Ss+jNbGrS+/zVi2NlYOrM/WzFV939jKhgZvZ54DY6f7VROCUAItIttnP3U6OCFVX+HgeGR8XMaAxpMu7LwCvFP4eSajXMUhyz0xllzO8HlvLAKptmNpI0n0F6UQIgIt0gx03jSODHUfGkKdHJ3NLAnWgU4FOUAIhIN4geNv4s8BgwVVRMaUqO1zn/Br4aFa8b1GE3QBGRdtwF/Cc45n7o5l+lhYHtg2P+gs6sw5GNRgBEpNNt4e5nRwUzs7mAR0iFxKQ6jwGLBS/pPIW0kZOgEQAR6Wy3Rd78C/ujm38dLEAqQx7pl6SqpoJGAESks23s7udHBTOzeUnvn1UmvB6eAhYOLuv8d9LOp4OeRgBEpFPdFHnzLxyIbv51Mg/wreCYvyJt0zzoaQRARDrV+u5+aVQwM1uQVIe/E9bKDybPkjZ3itza+Xhg16h4nUojACLSia6JvPkXfo5u/nU0J7BbcMxfA2GvFTqVRgBEpNM48EV3vzYqoJktBtwDDImKKaFeBBZw9/eiAprZ74EfRcXrRBoBEJFOc3jkzb/wc3Tzr7PZgO8Gx/wpKekbtDQCICKd5EbS03/k2vClSGVi9UBUb68A87v7O1EBzWxx4BY6Y7+HcPrAi0in+CewXuTNv3AQ+i7sBDMDP4gM6O73AysCd0fG7RS5RwDeAC4ibcV4K2m4ZcAtK4PNDyxfHGsDC5XYNqTzvwQYDdwO3Ee55y+dZyiwBPB5YFlgfeqxT3uVXgB+4u4nRwfuwK1inwMeAh4k7VT4BvA28Faf423SZ2k6YNrin72PmUnldhcFFin+nU7wGmkU4K3IoGY2DDgY2AOYIjJ2neVMAC4Avu3uz2WK3xQzm4L0nu8nlPOur1bnL53JzOYA/gJ8ueq+VOBl4HDg2MjJX72Z2Shgkxyx2/QucA1wE+lm/xDwkLu/naMxM5udT5KBJYDVgRHUc2TkF+5+UI7AZjY3cACpUFDX14PIkQB8AHzP3f8WHDeEma0I/Js0OpBDrc9fOpOZ7QIcw+AoUfsacCTwp8j3vX2Z2QrAzbniN+lD4AbgcuAy4OYMrzqaYmYzAmuQRk/XJiUGdfAmaRTg9VwNmNn8wM9IGxJ17eTQHAnAPu5+RHDMUGa2LCmzzrHmt/bnL53JzH4C/KbqfmT0JvA74KjoId7+mNlFwAa52xnA68DpwJnAte7+foV9maRii+R1ga+RrluVNRMOdvcDcjdiZguTRo6/Tj1HQ9oSnQBcD6zu7rXfctHMfkH6xUbqmPOXzmNmQ0ifsRWr7kuwt4E/AL919zfKaNDMVgWilxI2YixpXtRJwHnu/kEFfWibmc1CSgS2B1aooAtvk0YBXi2jsWK1wC+Aremc+SKTFJkAjAMWd/eHg+JlZWaTA3cQN6zVUecvncnMlgDurbofQd4FjgaOKOuLHMDMJiMtJyzzxnU78A/gNHd/ucR2szOzRUmJwI7AXCU2fby7715ie5jZ50irRjYvs91cIhOAe919qaBYpTCzI4EfB4XruPOXzmRmjwALVt2PNrwPHAf8xt1fKrtxM9sd+HNJzV0F/Nrd/1dSe5UpHqp2APajnM+nA6u4+40ltPUpZrYcKRHYqOy2I0W+07g1MFZZIvvciecvnalTP2sfkJ74F3T3PSu6+c8KHFJCU5eQChatORhu/gDuPraY/NwzInB/5iYN+HPxaqxU7n6bu28MrAxE70lRmsgE4LbAWGWJ7HMnnr90pk77rI0Fjift6/59d3++wr4cBcyQMf4oYEV338Ddr8nYTm25+zh3/yewFOmd+Z0ZmxtB3Chu09z9RndfH/gicGVV/WhVZALQie+1IvvciecvnalTPmsfAX8HFnH33d396So7Y2b7kGZz53AvsIa7b+but2Rqo6O4+3h3/y+pqNVupOWdORxiZpXWyXD3a9x9LWAd0kTdjhCZACwbGKsskX3uxPOXzlT3z9o44BTSpNhd3P2JivuDmW1FniWU7wB7ASPc/eoM8TueJyeQXg38jfil50OAfxcT9Crl7pe7+6rAl0h7DNRaZAKwXGCsskT2uRPPXzpTXT9r40lFtpZy9x3c/ZGqOwRgZiuREpLo5Vv/ARZz99+6u0p8T4K7v+Lu3wJWJa3AijQtcF5RObNy7n6Ru68IbEr8uYYJTQDMrMrCEK1YKTBWJ56/dJiipPWIqvvRjwuBZdz96+7+QNWd6WFmG5EmaU0VGPZJYH1338bdnw2MOyi4+w2k/Vl+BIwJDD03cL2ZLRkYsy3ufi5pxO4rpL0baiUyAZge2DcwXlbFU0HkWs6OOn/pWAcAU1fdiV6eB77q7l9291rtrW5mPyJNyovc6GYU8Hl379iZ33VQTBT8A+kh7KHA0POSkoD1A2O2pXgFMhJYkvQaqtISz71FVwIcC6zg7jlnfbbNzKYiFeZYNDh0R5y/dKbMJaybNZ60lv6nZZTtbYaZDSeVFN41MOxY0o6Evw+MKYCZTUNaJbJtYNiPgD2Bo9095463TTOzpUh1MFatui/RtY0nB042s9puX2pmRvpyiL75Qwecv3Sm4jP1D+px838H2MDd96jhzX8z0rbbkTf/J0klvnXzz8Dd33H3b5BWCkS9EhgK/BG4tg6TA3srRspWBw6tui85Njf4HHC3mVW5yUa/ih2ergRylo+s7flLZyo+S3cDS1fdF9ISxNoVtzGz+czsHOBsYJ7A0OeShvxvCowp/ShWCqwERJZTXwW4zcyOLEYaaqF4LfBT4P+IXxXRsBy7AfZ2Amkd8J3uHjnZo2FF3e9FScsyDgLK/BBUfv7SmcxsGLAMsDOxT7PteIL05B/5zrYtxazvnwLfBqYIDn808ENt7lUuM5sJOJ/YSdqQktfDgWPqtPOimX0DOJE0glxu25STfXxEKpRxT/GfyzI/aQZm1ZlfVecvnWcoqYLaktRjuL/H08AX3P25qjsCH5f03Rf4DjAsQxP7u3sZJYNbVlyDRUgjHtORJjtOU/xzWtJ3zdu9jndIWxA/Ajzs7u9V0O2GFPM4/kN6cIv2Amn4/fi67MZoZpsCZ1HylsNlJQAi0rnGkural77pSl/F0+E+wB7kWQ0xDtjV3f+eIXZLilHMZYE1SaNCixRHO3ONHHiGNAP/IdLk0ivc/am2OhuoWFb9N9IGQzk8AxwM/M3dK5+Zn2mL+oHbRAmAiAzsR8WSrcoUkyB/DPyQ2GV9vb1PWtJ4bqb4DSv2n18fWAtYg/Zu9s14DLgcuAK4xN1fKandfhWTtg8D9s7YzBPAr4CTqyzoVCR6F5J+7+W0iRIAEZm4/7r71lU1bmbTkgrG7Enem+A7wIbufl3GNgZkZrOQlsLtSKqfX7WxpHfxJwHnV/mUXOzjcFjmZh4hzRP7V1XzPsxsZmA0qahR/vZQAiAi/XuVtHXvm2U3XLwD3oP05DdT5uY+BDaqYmVD8dS3CWmy55eoYCJYg14B/kV6b35fFR0ws0Mpp9jaA8AvgDOqqCFQrPq5qKz2XIcOHTr6OfZ2d8o8SBP6/g94saRzHEca9i/7PIeSnvTvr8HvuZljPGmy2gplX7Piuv2txHO9C9iiovO8qqRzrPwDpUOHjvodzwNTl/iFNwXpif+5ks9zj5K/2IcB3yO9d676d9zucSmwVsnXbwhwTsnneRtphKjM81y9pHOr/EOkQ4eO+h2l3BhJQ967Ak9VcI6/KvlLfTO648bf9zgfWKDE6zgVcE0F53kjsF6J53lRCedU+YdHhw4d9TpeBKbI/OU2BPgmadZ5Fef41xK/yOcHzqvB7zXn8T7wM2DKkq7pZ0i1Vao416uBNUo4x9VKOJfKPzg6dOio13F8xi+1yUgz3R+s8PxuJXOCU5zrUNLuje/V4Hda1vEwsG5JScBipNUbVZ3r/4BVMp6fAc/mPIdSqw6JSEc4K0dQM9uKtKfBqaRCNlV4izTp78OcjZjZ3KSJXL8iDVkPFgsBl5jZb4pCPtm4+wPAd3O2MQnrANeZ2YXFTp2hPGUBZ0fHnaAdHTp06CiONwl+OiaVpz21BufmwDYlPJluTFpCWfW5Vn1cC8xVwvX+Rw3O9SPgJ4AFn9u6OfutEQAR6e38yKdjM1uCNIs6cq/3Vh3n7mfkCm5mQ83sCGAUMGOudjrIqsAdZvblzO18l7ScskpDgN8A55rZ9IFxryTt35CFEgAR6S2s3r+ZTQmMpLrh/t7uJNUXyMLMpiYtT9uL9O5WkplIN8Xv5GrA06ZG25AmIlZtI+CPUcE8lSa+PSpeX0oARKS3xwJjHUiaqFW1D4GveaYtuc1sBtKEsNxPup1qMuDYYrObLNz9HtImUXWwQ1HNL0rk3+SnKAEQkd5CvmzMbB7SO9E6OLyYMBbOzOYkrUlfOUf8LvNzMzu2KH+cw7GkFR51cGxgLCUAIlKKx4PifJG0DK5qj5G2fA1nZvMB1wNL5ojfpb4DnJojCfC0gc93SOWKq7aAmS0QFCvqb3ICSgBEpMdL7h71HrUuT8TfzzH0X+zcdwkwT3TsQeBrwDE5Arv7rcBxOWK3IOpv4ImgOBNQAiAiOSxTdQeAM939guigZjYNad/2haNjDyK7m9lBmWLvT6pmWbURQXGyTSpVAiAiPYYHxnopMFYr3gF+GB3UzKYgFUpaLjr2IPQzMwsv5OPub5BWY1TtlaA4kX+Xn6IEQER6TG1mUU8b2SYuNehQd38mQ9y/kIqzSIw/mdnG0UHd/Z/ADdFxmxT1NzBNUJwJKAEQkR4GTB0U65GgOK14Azg6OqiZ7QLsEB13kJsMOKkonRzt1xliNiPqb0AJgIiU4jNBcf4XFKcVf3L3tyIDmtlSwJ8iY8rHZgROj947oJj/cUdkzCa8AtwVFCvqb3ICSgBEpLflI4K4+yPEfQE2413gD5EBzWw48B8G16Y+ZVsZOCRD3BwxG3G2u48LirVCUJwJKAEQkd5WC4w1MjBWo45z91eDY/6JelQ07HZ7BVfQg/QZfDA4ZqPtRon8m/wUI+0KJCICcIO7rxIRyMyWBO6JiNWgD4D53f35qIBmtgZpQxYpx2PAkpG1G8zsm8CJUfEa8CYwi7uPbTeQmX0WCPs896URABHpbTkzGxYRyN3vpdynrxODb/6Tk6lgjUzUAsB+wTFPBZ4OjjmQcyNu/oVVg+L0q8xSne+Rtmz8qMQ2pfMMBRYnbjZ6u14kYyWuflR9/lOQ3sdeERTvTOK/0CfmhOB4P0JlfqvwEzM7pZhH0jZ3H2tmJwI/i4jXgMjh/7UCY00g9yuAq0hDL7cB9wdOipAuZmZDSDfB5YCdgDVKbH48cDxwMXCruz9bYttA5ecPaRb9DyICmdlylLNByz3uvnRUMDObi/TAkm0JlgzoYnffMCqYmS0EPBwVbwDvAjNHvMIoanI8BczVdq8G4BmO94AfAObu6NDR6kFKUn9QfKZyfFZ7Hw8Dq1R9zhWef8/xTOTfLmkzk9x93jv4uv+txOuto/9jveDf6XUl9PmMwP5+IXd/c8wBeAZYxt3/6MVZiLTKkz+SasvnqOzW4yzS5/b6jG00rcTz721OYKXAeGcGxurPONJ73hDFVsbbR8WTlu0fHO/k4Hj9iRz+3zIwVr9yJAC7uHsZQy0yiBSfqW9nCv886XP7Xqb4bct8/v3ZKjBW7uWAl7n7c4Hx9gYmD4wnrVnDzCInwZ1OWimSyxjg/MB4kX+D/YpOAI5z90uCY4oA4O4XAX/PEHo3d389Q9xQGc+/P5FPHzcAkTfovsKe7MxsNuBbUfGkbWGjAJ42CTo3Kl4/LnH3dyICmdkI0oqIrCITgPdImbNITnsCUUtsIP3R5vxSiBZ9/hOzgJl9PiJQ8SrwrIhY/Xg/OPaeQMgySAnxJTNbNjDevwJj9RU50pX96R9iE4A7orIfkYlx9zeBuwNDXhsYK7sM5z+QyFGAXK8Brot6dVOs+98lIpaE2j0w1uWklT7RxgKjAuN1XAJwW2AskYFEftY68XNbVp8jv4SuJm5/9N4uD4y1ETBTYDyJsU1gcao3gdERsfq4vHjF0DYzW5y0DDi7yASgjLW+IhD7WevEz21ZfV68+DJqm6caIOdExOojMgHQVr/1ND2waWC8KwJj9ei44X+ITQCmDIwlMpDIz1onfm7L7HOdVwO8RVAyZGYzkkYApJ4ik7PoBGAccHZgvI5MAJYLjCUykMjPWid+bsvsc+SX0WWkjVKiXOVx1UW/SiqDLPW0gZnNGhTrGmJL0l/j7i9HBDKzBYAREbEaEZkAhOwjLtKAyM9aJ35uy+zziOJLqW3u/iGxy7Aih/83CYwl8YYCIaWBi8nqka/ROqr4T2+RCcDSZjZLYDyRCZjZ7MTuzb52YKzsMpx/I+r6GuCqiCBmNhRYPSKWZBX5t3p1UBwnttJlacP/EJsATAEcFxhPpD/HA0MC461sZjsHxsst+vwbEfmldDFpw5R2OfBAQByAFdCmP50gcme8+4Li3BhVhdLMoktwT1J0JcAtzWzb4JgiAJjZ9uQZqv1dsftbrWU8/0lZMer6uPv7wAUBoZ4uYkXoqFGgQWweM1swKFZU8hg9/G+B8SYpx14AR5vZGhniyiBWfKb+kCn89MC/i+H1Wsp8/pNsHtgiMF7El+ZDATF6KAHoHFGjAA8GxenI5X89ciQAMwBXmNkfzWx4hvgyiJjZcDP7I2npzgwZm1oVuLd4yq6NEs9/UiK/nC6g/U1ZQr7Aiz3XSx12lbasHBGkKNrzYpthRrv7EwHdoVjhUPo8lKGZ4hrwfWAjMzuDVLns1qiLJd3NzOYjzXRfDtiGEjbFKMwAnGxm3wQuIc0UHl32RkEVnv9AVjezWd39pXYDufvbZnYJ7b3OiBoBmAvQg0rniJwA+wAwWxs/H/n0vzl5HsgHlCsB6LEAsG/PfzGzd4ldfyndZyjVfyGvTa9hYTOLXLs+KXU4//5MRvqSOiEo3kjqkQCUvaJC2hP5+3oQaOd1dUcP/0P+BKCvOn6xiUzK9FV3oCa2Ii4B+F+bPx+VACwaFEfKMaOZzezuEftKtPMa6Vl3j3oNNQOxKxwaVvqQg4h0rLWKL6u2ufuzwONthAipvIZGADpR1O+snSQiqo4ApJGwyQPjNUwJgIg0anJiN2Vp9UvUgaitxxcJiiPlifqdvd3Gz14T1AeoaPgflACISHMiv6xa/RJ92909qA9VrqyQ1kT9zipPAMxsGmD9iFitUAIgIs1Yr/jSitDqO9S3gtoHmDYwlpQj6nfWTgIQVUdgI2BYUKymKQEQkWYMA9YNitXqe3wlAINb1QnAm+4+NqgPXw6K0xIlACLSrCWD4rQ6CSsyAdAeAJ0nKgFodR5J1ARUiPtbaokSABFpVtQs7NeAcS38XDtDtx8rqgAqAeg8Ub+zVj9HEUsQe1S6DFUJgIg0K6QuQjGR78MWfrSVn+nPZOg7sBNFLZlrdRg/ZBMqM5scmCoiVqv04ReRZoUU4TGzqWntCzDkCdDdxwFjImJJqaKWgLb6OZopovFiHkE7tTDapgRARJoVNQN6lhZ/LnLiXsjrBClV1O+s1c9Rq5/b/kRtS9wSJQAi0qxrg+LM3OLPKQEY3KpOAFr93PYnsqBQ05QAiEgz7nf3+4NizdnizykBGNyqTgAmN7OoUYDIDYWapgRARJoR+YXV6t7ukTP3lQB0nqjfWTufoy9EdMDdHwXujIjVCiUAItKMyARg9RZ/bnixhC/Ck0FxpDxRv7N2RpJa/ez2p7JRACUAItKox9z9johAZjYMWKHVHyfuNUDUhEYpT9TvbLo2flYJgIgMKpFfVCsBU7Tx8wsE9aPSWdjStA+Bx4JitfMZWs7Mhkd0wt3vo6LPoRIAEWlUZALQ7rbCURXUNALQWR4t6jdEaOczNDmwYVA/oKJRACUAItKIZ4CbA+O1u61wVDnih4DxQbEkv8gn5XY/Q5FbYysBEJHaOqso3ds2M1sOmLfNMCEjAO4+Bng4IpaU4q6IIGY2FFiwzTAbm9mUEf1x99upoCqgEgARaUTkE0rEk1PUCADAlYGxJK8rg+IsQPt7CkwLrBfQlx6ljwIoARCRSXmJ2IplEQnAIoFLAS8PiiN5jQFuCIoVNYeko18DKAEQkUk5291D3pOb2VLAIgGhhgNzBcSB9FQZ8npDsrre3T8IihU1grRp8Tohwk3As0GxGqIEQEQmpW7D/z1arSPwKe7+EnBvRCzJKnKkJuSzA8wIrBURqJhjc2ZErEYpARCRgbwOXBEYLzIBCPniLVwaGEvyCPkdFa+O1oyIVejY1wBKAERkIKOKfcvbZmYLA0tHxCpEJgCnBcaSeI+6e9Qy1CWJ3dJ3czOLupdeQ5pzU4qodxeT8ixwK3AP8FFJbYp0oqHAUsDytL5bXqTIJ5ItA2MBLGlmsxZD+G1x91vM7AFiVxdInFMCY60dGAtgNmA14Op2A7n7eDM7G9i17V41IGcC8CHwC+Dv7v5ixnZEupKZzQbsTPo7aqdsbqveIXZoPHKotMdawOlBsU4GDgmKJbEiE4DIkaMeWxGQABRGUlICkOsVwO3A8u5+qG7+Iq1x9xfd/VDSaMDtFXTh/KJQTtvMbB7iJl71Fvll/k+0GqCOrnX3kPr/xVD9GhGx+tgycFnqFaS5N9nlSACuAlZy97szxBYZdIq/pZWIe8JoVJ2H/3uEJQDu/jRwWVQ8CfOPwFjLADMExusxF7BiRKBizs2oiFiTEp0AvAPsFDVpSESS4m9qZ+Ddkpp8H7ggMF6O4X9IBYGWCIx3WGAsad9zpJGZKJsHxuqr41YDRCcAP3b30usZiwwG7v4osF9JzV3s7iHJhpl9FlglItZE7BAVyN3/R+ymR9KeI6OK/xRD9NtHxJqIyFGuS4C3A+P1KzIBeNndTwiMJyITOgZ4q4R2Ip9AtiDvkuNvBC7DAjg4MJa07hUg8p6yOjB/YLy+FjSzERGBiqTn/IhYA4n8o7ktMJaI9KMoyTs6czMfAucGxss1/N9jLmKXdp0LaA5T9Y6KGoUqhI0UDaCjXgNEJgC3BsYSkYnL/bd2mbu/GRHIzGYiz6zrviJfAzhp6aVU52Xg6KhgZjYVsHVUvAFEJgAXkubiZBOZAChjFilH7r+1yHrkm1JOwbEtzWx4VDB3PxO4KCqeNG2fqCS0sBkwXWC8iVnczBaPCFSMfmT9DEYmAHMHxhKRicv9txb5pZN7+L/HcOArwTH3IG1BK+W6BjgpOOaOwfEGEvmZvyQw1gQiE4AcRT5EZEI5/9aedPdnIgKZ2XTAehGxGrRXYDGWnlUXv4mKJw35CPhu8RomhJktDWwQFa8BkQnAtYGxJhCZACwfGEtEJi7n39p1gbE2ptwSxksRv877N8DDwTFl4n7v7vcEx9wPCEsMGzDCzBYIinUv8EZQrAlEJgALmtnKgfFEpA8zW4O8mwRFPnGUNfzf2/6RwYrlWNsBKm6W353AzyIDmtlCwDaRMRsU8tkvRkJuiIjVn+i1uf8oZluKSLBiktvfMjcTMgJgZlMDG0bEatJyZvalyIDFNrT7RMaUCbwNbB2190Qv+wJDgmM2IjL5jRyV+5ToBGAR9M5MJJdDgQUzt/FUUJz1gamDYjXrgOiA7n4UcE50XPnYbu4e+qrFzOamnLX//VnRzGYPivVsUJwJ5KjO9X0zO8LMhmWILTLomNkwMzuCNCs9t6jCK0sHxWnFKmYWvec7wE7AkxniDnYnuPtpGeLuDUyeIW4jjDQnJcI7QXEmkCMBMGAvYLSZaWWASBuKv6HRpL+p3BOZPgzcyCv3SMWkHBpcHhh3f500ybCMUsyDxdXAD6ODFu/+d42O26SoiYDZNgDLWaBjceAGM7ubVCb4VuAe0jIPEenfUNKTw/LAcqQn6bLeYUZ+0UR9+bVqReDbwPGRQd39DjPbnFSlbcrI2IPQ3cBmGd77Q6oiWPXvJ+pvINsIQO4KXUOAEcWxS+a2RKQ97wXGeikwVqsOMbOR7v5KZFB3v8LMtgf+Td5NjrrZk8CG7h6+xM3Mtqbcdf8T82pQnGzlgPXhFZEeswQOm2dbutSEGYHDcgR29/8AP8gRexB4FdjA3Z+LDmxm0wK/j47boqi/gdmC4kxACYCI9JiCuDLDdUgAAHYys1VyBHb3Y4DvA+NzxO9SzwFrufuDmeIfRN46GY0aS9ymXdlepykBEJHeFgqKcyP1SAIMONbMssyjcPejga+TtlCWgT0IrOLuWTazMrNlqM+ozF/dPWroXgmAiJQiZPa+u48nTcKrw41xGeCnuYK7+xnAl9DqgIHcBKzq7lmWUZrZlMCJVFP0p69nSQWIoigBEJFSLBkVyN3vJbi0axt+XpRRzsLdLwfWIK6QUjc5G1jb3aMmxfXnCODzGeM3aiypqFFkMrhEYKxPMSBs1yUR6XiPunvUawAAzOxrwF+AaSLjtuA5YIS7v5yrATObEfgHsEmuNjrIWOAn7p51Ul6xLPOsnG006Anga+5+U1RAM1uE9OokC40AiEhvC5pZ2CgAgLv/m1TX4MbIuC2YAzglcsvgvtz9NXcmOx97AAAbC0lEQVTfFPgxg3sDoSeA1Uq4+c8D/D1nGw1w4BRSchl28y9sFhzvU5QAiEhf0Vvq4u4PuvvKpC2CR0fHb8IGxL6f7Ze7/w5YHXg0d1s19F/g88UmStmY2VBSLYYZcrYzAAfOBD7n7ju4+5sZ2siaAEA6CR06dOjoOW52d3IewBbAXRWd31hg9dznWJznMOAXwJga/F5zH48CG5VxXYtre1iF53ouKcnJeX6zAOMyn0flHxodOnTU71iphC9wI+3Vfl8F5/cqsHiJN6uFSOWDq/695jjGAL8EhpV4PXer6FwvLuNvozjHn5dwPpV/eHTo0FG/49ISv8wnA7YDHir5HJ8C5irrPItz3YJUA7/q32/EMQ44A1io5Gu4JfmfjPseV5DmNJR1jjOTlpXmPq/KP0Q6dOio57FmyV/sQ0hb7j5W4jneC8xY8nkaaZ7FLTX4HbdyjAVOAhYr87oV125Nyn2dch1pCWPZ53lkGeenZYAiMjHXuftqZTdqZpOTEoEDiCtNPJAbgHXdPXIzpIaY2YbAT0g1BHJv99yud4F/Aoe5++NlN25mI4CrgOlKaO4W4GfuflEJbX2Kmc0JPEKaP5K3LZQAiMjE7ejuJ1fRcFHd7dukKn6zZ27uAtLWtJVsV25m85Neg2wPLFxFHyZiPGn4+2RgpLtn25t+IGa2AOlp/LOZm7qDdOM/N3M7E2VmI0mvOfK3hRIAEZm494AveKb67Y0ws6mA3UnL92bN2NT5wNYeV8O9JWa2EvANYH1g0Qq6MJZUuvc84FR3f6aCPnysqEtxETBXxmbuJU26O9OLMfgqmNmewG9Law8lACIysIeAFTy2vGnTzGw4sAewNzBTpmauBzZ299czxW+Kmc0FrFMca5Nnp7vxwJ3AZcDlwNVVPen3ZWarkpbc5Vrr/xBpmebpnvavqExxrlcCQ0trEyUAIjJpI939K1V3Aj7e8/2HpGp7n8nQxH2k/eorffLtj5nNBCxSHIsW/5yH9F58WlK55Wn4pMjbWODt4ngHeJ30fvkhUonZh4BH3H1MeWfRGDPblFToZ6oM4R8jLV38p7uPyxC/KWY2K3A7qVplee2iBEBEGnMC8J2qn5R6mNlngD2BH5FufpGeIiUBDwTHza4odTw18JG7f1B1f1phZt8CjiN+d7+ngF8DJ1Y136MvM5udVF9g6dLbRgmAiDTuTGDbOt1Yig149iWNCkwRGPpV0sTA6wJjygCK5OVA4KDg0K+Qhvr/4u512KIaADNbELgUmL+S9lECICLNuZJ0Y6x0TkBfZrYYcCywVmDYsaRVCL+tcnLYYFC83jgJ2CgwrJM2C/qJ592OuGlmtgzpyX+2qvqgzYBEpFlrAteZ2QpVd6Q3d3/A3dcmzaB/KSjs5KS95s8pRhokAzNbhfQOPPLmfy9pz4dv1fDm/01STYPKbv6gEQARad144GjgAHd/u+rO9FZsE3s+sFRg2KdI+73fEBhzUCuG/PcGDiZ29vs5wDfqspqhh5ktDBxP7ChVyzQCICKtmgz4AXCfmWXftrQZ7v4UsCppiDXKPMBVZrZXceOSNhRD/ueSdvWLvPn/HtiyTjd/M5vCzA4g7QNRi5s/aARAROJcAxzo7ldV3ZEexZ7xJ5BKC0e6kbQi4o7guF2vSJ52It34Zw4Ov4e7HxMcs2XF5++bpLLW81bbmwkpARCRaJeRyqleX3VHAMxsCDAK+HJw6HGkSYcHuvubwbG7UlHP/1hg5QzhD3L3X2SI27TiM7cd8DNggYq7M1FKAEQkl4tIicAtVXekKB50LfC5DOFfAPZy91MzxO4KZjYd8Cvge8Sv7YdUsni7DHGbYmaTAV8jlRVepOLuTFKnJQDvkipXPdfP8SqddS7SuYw0dDlHr2P24p+LAMOr61otjQJ+XvVwuZnNDdxMvg1lriItN7spU/yOU+zsuD1pkl+u634taTfHympTFK81vkKqNbBEVf1oVickAM+SJoqMAi6vUwESkb6KHezWBjYDNqHk0p415qQiQj9393ur6oSZbQmMzNzMZcAh7n555nZqy8yGATsD+5D33fd7wBLu/mTGNgZUTID9JXlGl7KqawLwOGnf6XOA0SrAIZ2oeCpYnpQMbE+aRT7YjQdOJ72vfbCKDpjZBcCXSmjqRuAQ4LzB8h1mZtMA3yGVaM69dS/Afu7+mxLamYCZfZl041+uivYj1C0BeJVUp/nYOpVrFGlXMTKwB7A/+XY26yTjgFOBX7r7o2U2XJRfvQcYVlKTdwNHAv919/dKarNUxeuVXYDvA2UVTLoPGOHuY0tqDwAzW4904/9Cme3mUJcEYAzwR+BQd3+j6s6I5GJmM5BKy34fmLLi7tTBR8A/gF+XOYxrZr8iLc0q0zuk1w8nA1d0+qhA8bS/FbADqTpk2XVl1ixzyamZrUmayLhaWW3mVocE4P/bu/Oou6ryjuPfJ6ICIoogAtLaMgYEnBis01I0YKkDCAQVWVagLVVBpcqogjOoraWLFrvqVGllDALOERmEihRBRJBBEAUMyFCRUZKQp3/sA4RAQt5kn3vOvef7WesuslzkOY+u93X/7t777H0CcEBzcIc0CM1JdZ8Gduu6l56YC3wR+ERm/rbthzW70n9Nd7MxNwDHAseO042DzS73V1MG/Z3obsPr7MzcfhQPioiXUgb+3hzgU0uXAeABYP/M/JeOni91LiLeS5kebuPVqHF0P+Ua2CMy8+Y2HxQRh1B2p3ftF5SNg2cCZ/dtFrRZMtl2oc+a3XYEwIvbftsiIramTPWPJGh0oasA8Htgt8z8fgfPlnolIranzIQ9reteeuReyoExR2bmbW08oJnC/hXwzDbqL6MFwMWUMHAmcMEoA0GzcfU5wMt5eMDv2+bVb2bm69sqHhEvpFxH/Lq2ntEXXQSAK4E3ZOYvR/xcqbciYmPK664bdt1Lz9xN2R/0mTYGwoh4P+W2vz67hXL+yVXN58E/X7esr0VHxNMpP2sbN5+Nmn9uCKxcoee2JLBlZl5cu3BEPJcy1b9T7dp9NeoAcBawk8dmSo/WbBA8nQnaZFTRDcAetTd9RcRKlFmAUbyy1oa5wF0Lfe5e6M8rAE9tPqss8udxXXL6ema+qWbBZtZjf8orm0+qWbvvRhkArgK2cfCXFq+5Ie0CYP2ue+mhBcBBmVn1G3tE7AccVbOmWpHA8zLz57UKRsSTgK9T/56IsTCqAPB7yuDvtL/0OCJiU+B8YNWue+mhBLbLzDNqFWzOaLgGWLdWTbXihMx8c82CEfE54L01a46TUby3OR+Y6eAvLZ3M/AXwFso3Xj1SAMdGRLWNe806eh/eBtDiLaBszKsmIl7HgAd/GE0AeF/NtC4NQWZ+Gziw6z56ai3qH+LzRcq5AOqnr2XmFbWKRcQKuOzT+hLAiZnpQSfSMoqI04A3dN1HD90PbJCZN9YqGBF7UoKA+mU+sElmXlOrYETsDfxHrXrjqs0AMBeYnpnXtVRfmngRsRFwOWVHtx7pmMx8Z61izbfCK4ANatVUFV/KzL1qFWs2/v2S/p1vMHJtLgF83sFfWj6ZeTV+U1mcvSKi2lWzmTmfcvKb+mMe5d38mvbGwR9obwbgLmD9zLy1hdrSoETEsyi71Ffpupce+mJm7l2rWHPW/eXA9Fo1tVz+PTP3qVUsIlak/C49u1bNcdZWAPhQZn68hboPaQ5v2AJYD1gHWJ3R30alYVoA3AbcRDlE5tK2b3aLiA9TeRf0hJhPWWqsdqVwROwGHF+rnpbZ/cCGmXlDrYIR8R7gn2vVG3dtBIBbgPUy857KdQGIiBcB+1DOaR7X07s0WW6iHON7TGZe0sYDIuIplLDRh4tY+uarmfn2WsWaLxc/AzavVVPL5OjM3LdWsYhYmfI79KxaNcddG9+YT2pj8I+IdSPiv4ALKWs4Dv7qi7WBvwUujoivRkT1A2Wa36mTatedELs3dylU0czmHFarnpbJfZSjeWt6Fw7+j9BGADi1dsGIeBVwCbA7ZdZC6qMA9gAuaX5ma6v+uzUhnkDlATszv065lU/dOCYzb6pVrLn58YBa9SZF7QBwB3B2zYIR8XZgNmWNXxoHqwOzm5/dms6m/I7p0XZrbnOr6cOV62np3AMcWbnmfsAalWuOvdp7AP47M99Wq1jzLWo2vgOt8TQPeE1m/rBWwWYZbPda9SbMyZm5a82CEfFjYJuaNSu7BTgX+BHlxsTbgFubf64APHOhzwbAy4EXA0/potmldGRmHlSrWEQ8DbgOWK1WzUlROwDsmpkn1ygUEc8GLgWeUaOe1JFbgc0z83c1ikXELrgXYHESeEFm/qxWwYiYQfkS0hdzgTOA04BzMvOqqRZoDjx6IbAt8CZgq6odLp+7gD/PzNtrFYyIw4DDa9WbJDUDwFxg9cy8u0axiPgCUO30J6lDn8/Mv69RqFnLvJ2B3Vs+Badl5o41C0bEDynfnLtyL/BdYBbwzcy8s2bxiPhTShDYGXgJ3b5O/bHMrLb0EhGrUb79P61WzUlSMwBcm5lVjtBsdvReTtncI427+cBmy/Jt7bFExLWU8y/02LbMzItqFYuIVwJn1aq3lP4AfBM4BfhuZt47iodGxFrAjpQw8EpGu/x6B+Xbf7V9LhHxCeCQWvUmTc2kN6dirb1w8NfkWAF4R8V61XZHT6iqx/lm5tnAD2rWXIzbKJcR7QCsmZlvy8xTRjX4A2TmzZn5+cycQXllbk/gW5RDedr2j5UH/zUom/+0GH0NADtVrCX1Qc0b/QwAS7ZDRLy4cs19gKpT7405wL9S1uPXysy9M/M7mTm3hWdNSWb+X2Z+OTNfRzmAanfKMkQbgeSnwGcq1zwAj89eot4FgIjYAG/j0uTZpOIBQTdXqjPJas8CXAP8TaVy1wGfpay3r5uZ787MszLzgUr1q8vMOzPza5m5C+WNgp2Br1EnFN0JzMzMarMMzf0Z76pVb1LVXN+pNQNQ7XYvqWeeA9S4v94ZgMc3IyJenpnn1iqYmSc2Zw18kKl/ebqC8u15VlvHRY9KsyRxCnBKc7XuDEogeANTP6/lD8AeTcCq6WBg5co1J07vZgAoF/tIk6jWz7YBYOlUv9o3Mw+jvBFwxVL86xdTwsImmblpZn5o3Af/RWXm3Mz8VmbuSTmefQZwDEs3S3Uy5X+bb9TsqXmF/O9q1pxUNWcAaq0Lmdo0qWr9bN9Xqc6ke2VEbJuZZ9Ysmpk/iogXAG8E/oJysM66wLXA1cBlwOmZ+euaz+27zJxPOaPgjIh4N2WJ47XAhsD6lIBwKXAecGZm/rilVg4BVmyp9kSpGQDWrlTHbzeaVLV+tr3QZOl9FKgaAACa9eoTm48WkZkLKAP9eaN8bnOmwd6jfOY4q7kEUGt6s+bbBFKf1PrZrhW2h+ClEbF9101oZD6Eh2QttT4GgMsol0FIk+ROoMpBQBgApqr6XgD1T0SsB/x1132Mk94FgMz8I/CdGrWkHvluZs6rVMsAMDVbR0TVS4LUS0fgxXFT0rsA0DihYi2pD2ZVrGUAmLqjmlvhNIEiYgfAkDdFNQPAn1SsdQplt6g0CX5GeeWplmdXrDUUawOf7LoJ1RcRK1NOU9QU1QwAq0XEi2oUanaQHlyjltQD729+ppdb8zvmvebLZp+I2KbrJlTd4cCfddzDWKp97WO1azgz89vA0bXqSR35p8w8o2K9qlfdDsw04MsR8fSuG1EdEbEt8L6u+xhXNa8DBrgsMzevVSwinkDZEDijVk1phGYDO9Q84z0ifg5sVqveQJ0LbNdsOJ4YEfEc4GXAdGAj4G7KmyeXA2dn5kS9XRURW1LOeHhq172Mq9oBAGCDzLy2VrGIWAn4EvDmWjWlETge2DMzq53aFxHrA7XPTB+qU4Fd+nwBz9KIiA0p5/DvDGy5hH/1PuB7lM2o38jMP4ygvdZExMaUQ4bW6LqXcVZ7CQAqT1Fm5n2Z+RbKngCPQFXf3QscnJlvqTn4N5z+r2dHxnTjWERsFhGHRcSllKOHP8WSB3+AlSj/nY8FbomIb0fEXhExdgNoRKxFmV0bu977po0ZgPMz8yWVawIQEesAHwH2AJ7cxjOkZfRH4CvARzOzleOsI+J8yrnzquP+zByLM+ObzZ8PftPfqGLpB4BzaG73a+tnt6aIeC2eFVNFGwEAYEbljU+PEBGrAH8J7ACsRzmDYHXamdGQFrUAuI1ytv+vgG8B32lzjTUiZlC+9aie3gaAiAjKRUMPDvqjuCY9gfMpywSn9PUyIwNAPW0FgIuBLTOzjdrSoDSDwcXA87vuZcL0KgA0m55fQRnwd6L7q9EvooSBWZl5dce9PMQAUE9bAQDgrZl5XEu1pcGIiD2Ar3bdxwTqPABExBOBV1MG/R3p77r2ZZRlglmZ2ekhbQaAetoMAL8Cplc8/1wanIh4MmWj15923csE6iQARMSKwPaUQf/1wLidS3AND88MXDjqhxsA6mlzzXw9YJ8W60tDsB8O/mMvIp4RETMj4gTK/pFTKZuZx23wB9gAOBD434j4TUR8LiJe0cxmaIy0OQMAcAewTZ/Wj6RxERHPpWzK8qCTdlSfAWg2KD+dsin5+cBLm88mlP+/nWT3ARdQDlo6F7gWuC0z76z5EGcA6mk7AEA5iWqbcT94QhqliHgGcCFlJk3tqBYAIuJ0yptJXkf7aHMpsx77Z+Zy3/RqAKhnFK/NbQwc3+xwlfQ4ImIFyu2BDv7jY1Uc/BfnSZQ3GrzEqmdG9d78a4FPj+hZ0rg7CnhV101ImmyjPDhn/4h4xwifJ42diNgHeGfXfUiafNOAUd4Q9YWIOGCEz5PGRkQcCvxb131IGoR7pgFzRvjAacCREXFs8y6sNHgRsVJEHAd8nMnfKS6pH+aMOgA86G3AORGxdgfPlnqjueDqHLzuWtJodRYAALYGfhIRrdwcKPVd87N/IbBV171IGpxOAwCUV0POi4jjIsJXnjQIEbF+RBwPnEf3F75IGqY504DrO24iKNOfV0bEURHR18swpOUSEWtGxNHAFcBuuN4vqTvXT6M/d4w/kXLu+bUR8cFmbVQaexGxbkQcTjka9V2Un3VJ6tLsaZl5JeW2sb5YFfgYcGNEXBARh0TEpl03JU1FRDw3Ig6NiAuBG4DDgFU6bkuSAK7OzCsfPLryNOADXXbzGIKyUXBr4BMR8UvgdOBSyr6FOcCczLyjuxY1dBGxGmUdf+3mn1sAb6TcmCZJfXQaPHx29an0LwAsakPgHxb9DyPiPkoYuJ32LzaSoITTNSiD/kod9yJJU3UqPBwAfgzcDKzVWTvLbiVg/eYjSZIW72bKmF/uAsjMBcARXXYkSZJad0Qz5j/iMqBjgOu66UeSJLXsOspYDywUADJzLnBoFx1JkqTWHdqM9cCjrwM+HrhotP1IkqSWXUQZ4x/yiACQmQm8B5g/wqYkSVJ75gPvacb4hyw6A0Bm/g/lRD5JkjT+9mvG9kd4VAAAyMxjWGijgCRJGkvHNGP6ozxmAGjsB5zdSjuSJKltZ7OEGf3FBoDMnA/sAlxSvydJktSiS4BdmrH8MS1pBoDMvB14GTCrcmOSJKkds4CXNWP4Yi0xAABk5j3ArsBH8Kx9SZL6Kilj9a7N2L1EjxsAoLwemJmHAzOBu5arPUmSVNtdwMzMPHzR1/0WZ6kCwIMy82TKpTtHA/Om3p8kSapoHmVMXr8Zo5falAIAQGbempn7ApsCJ03170uSpCpOAjbNzH0z89ap/uUpB4AHZeY1mTkT2IqSPq5f1lqSJGmpXE8Zc7fKzJmZec2yFlpheTvJzJ8APwH2jYgXAG9sPpsDT1je+pIkDdgDwM+B04DTMvOntQovdwBYWNPYT4HDI2Ia8CxgnYU+a2IokNQP3nkynq6h7HSfRA8AtwBzFvr8LjMXtPGwqgFgYU3DNzUfbxiUJC23Zsr78K77mATLvAdAkiSNLwOAJEkDZACQJGmADACSJA2QAUCSpAEyAEiSNEAGAEmSBsgAIEnSABkAJEkaIAOAJEkDZACQJGmADACSJA2QAUCSpAEyAEiSNEAGAEmSBsgAIEnSABkAJEkaIAOAJEkDZACQJGmADACSJA2QAUCSpAEyAEiSNEAGAEmSBsgAIEnSABkAJEkaIAOAJEkDZACQJGmADACSJA2QAUCSpAEyAEiSNEAGAEmSBsgAIEnSABkAJEkaIAOAJEkDZACQJGmAVui6AUlSFb8BvgJcANwFPBF4JvBXwI7Aqp11VmTHz9ciDACSNN7OBg4Dzs3MxxpkT4yIFYHdgI8D646wt4VFR8/VYrgEIEnjaQ7w1sx8VWb+cDGDPwCZ+cfM/E9gOvBpYN6omlR/GQAkabzMAz4LTM/M46byFzPznsw8ENgC+EEbzWl8GAAkaXycBTw/Mz+QmXcta5HMvDIzXwPMBG6s1p3GigFAkvrvt8CbM3PbzPxFraKZeRJlWeBIXBYYHAOAJPXXPOAzlOn+E9p4QLMscBBlWeCMNp6hfjIASFI/nQk8LzMPyMy7235YsywwA5cFBsMAIEn98ltgt8x8dWZeMeqHuywwHAYASeqHeZRX9KZn5oldNrLQssDmuCwwsQwAktS9M4AtMvPAUUz3L63MvKpZFtgVlwUmjgFAkrpzIzAzM2dk5pVdN7M4mXkyZVngCGBux+2oEgOAJI3eXMoa+/Rmzb33mmWBgylvC3y/6360/AwAkjRa36dM9x+Umfd03cxUNcsC21GWBW7ouh8tOwOAJI3GDcCumbldZl7VdTPLq1kW2ASXBcaWAUCS2jUX+BSwSTNoTgyXBcabAUCS2jMb2DwzDxnH6f6ltdCywC64LDA2DACSVN/1wM6ZuX1mXt11M6OSmbMoywKfwmWB3jMASFI9c4FPUqb7T+m6mS40ywKHUA4Rmt11P1o8A4Ak1fE9YLPMPDQz7+26ma5l5tWZuT0uC/RWZGbXPUjSWIuILTLz0q776KuIWBlYJzOv6boXPcwAIEnSALkEIEnSABkAJEkaIAOAJEkDZACQJGmADACSJA2QAUCSpAEyAEiSNEAGAEmSBsgAIEnSABkAJEkaIAOAJEkDZACQJGmADACSJA2QAUCSpAEyAEiSNEAGAEmSBsgAIEnSABkAJEkaIAOAJEkDZACQJGmADACSJA2QAUCSpAEyAEiSNEAGAEmSBsgAIEnSABkAJEkaIAOAJEkDZACQJGmADACSJA2QAUCSpAEyAEiSNEAGAEmSBsgAIEnSABkAJEkaoP8HBLNO3FQlaM8AAAAASUVORK5CYII=;" vertex="1" parent="1">
          <mxGeometry x="-1140" y="320" width="100" height="100" as="geometry" />
        </mxCell>
        <mxCell id="szpw3MNMhI2yVc2b8Nyr-18" value="&lt;span style=&quot;font-size: 36px;&quot;&gt;1년 단위 수동 갱신 필요&lt;/span&gt;" style="text;html=1;align=center;verticalAlign=middle;whiteSpace=wrap;rounded=0;" vertex="1" parent="1">
          <mxGeometry x="-1280" y="280" width="380" height="30" as="geometry" />
        </mxCell>
      </root>
    </mxGraphModel>
  </diagram>
</mxfile>
